<svg viewBox="-38.250000000000114 102.00000000000011 1096.4999999999998 828.7499999999999" xmlns="http://www.w3.org/2000/svg" xmlns:xlink="http://www.w3.org/1999/xlink" overflow="visible" width="1096.4999999999998px" height="828.7499999999999px"><defs><polygon id="masterspot-illustrationui-design-path-1" points="0 0.855728366 369.150131 0.855728366 369.150131 383.471976 0 383.471976"/><polygon id="masterspot-illustrationui-design-path-3" points="0.44031893 0.957161388 516.594 0.957161388 516.594 167.536028 0.44031893 167.536028"/></defs><g id="Master/Spot Illustration/UI Design" stroke="none" stroke-width="1" fill="none" fill-rule="evenodd"><g id="UI" transform="translate(-28.000000, -17.000000) scale(1 1)"><defs><polygon id="uiscreen-1-path-1" points="0 0.855728366 369.150131 0.855728366 369.150131 383.471976 0 383.471976"/><polygon id="uiscreen-1-path-3" points="0.44031893 0.957161388 516.594 0.957161388 516.594 167.536028 0.44031893 167.536028"/></defs><g id="UI/Screen 1" stroke="none" stroke-width="1" fill="none" fill-rule="evenodd"><g id="Group-27" transform="translate(0.000000, 121.000000)"><path d="M141.6414,537.3606 C141.6414,537.3606 132.2194,584.4716 187.0394,582.7586 L332.2294,508.2366 L391.7614,524.0836 L523.1924,582.0916 C706.7874,582.2956 896.2854,582.8036 896.2854,582.8036 C896.2854,582.8036 950.2494,588.2796 957.9584,530.8896 C964.2334,484.1796 997.1744,201.1836 1009.2194,97.4606 L197.8284,97.4606 C183.5294,213.2456 141.6414,537.3606 141.6414,537.3606" id="Fill-1" fill="#c7b8cf"/><path d="M973.3772,1.139 C918.5562,-1.426 273.5542,1.144 273.5542,1.144 C273.5542,1.144 209.3112,-0.57 201.6022,66.243 C200.7952,73.234 199.5002,83.931 197.8282,97.46 L1009.2192,97.46 C1011.9742,73.742 1013.6362,59.391 1013.6362,59.391 C1013.6362,59.391 1028.1982,3.705 973.3772,1.139" id="Fill-3" fill="#91789d"/><path d="M196.9978,441.0413 L187.0398,582.7593 C212.3618,581.9673 365.6028,581.9173 523.1918,582.0923 L535.7398,444.8543 C536.1618,440.2413 532.5498,436.2533 527.9178,436.2173 L204.9568,433.680049 C200.7768,433.6473 197.2908,436.8713 196.9978,441.0413" id="Fill-5" fill="#91789d"/><path d="M961.2112,154.9749 C961.7742,150.4859 958.4152,146.4569 953.8962,146.2339 C901.7942,143.6559 719.0492,143.8199 551.0832,144.6119 C539.9452,367.7419 346.4202,394.7859 346.4202,394.7859 C534.0702,398.4429 870.1432,405.1209 922.6972,406.166494 C926.6792,406.2449 930.0672,403.3039 930.5632,399.3519 L961.2112,154.9749 Z" id="Fill-7" fill="#d5d5e2"/><path d="M551.0828,144.6116 L551.0828,144.6116 C408.2958,145.2856 276.1898,146.4126 244.1058,146.6956 C239.9868,146.7316 236.6648,150.0436 236.5928,154.1636 L232.569621,385.0076 C232.4978,389.2006 235.8228,392.6606 240.0158,392.7386 C261.5878,393.1386 299.3368,393.8676 346.4208,394.7856 C346.4208,394.7856 539.9458,367.7416 551.0828,144.6116" id="Fill-9" fill="#a399b7"/><path d="M566.6331,515.6839 L564.8101,534.3749 C564.3391,539.2009 568.1061,543.3889 572.9531,543.4239 C621.9601,543.7869 855.6291,545.4099 899.8371,543.7969 C903.7431,543.6559 907.0011,540.7949 907.6591,536.9429 L910.9151,517.8729 C911.7751,512.8359 907.8941,508.2369 902.7841,508.2369 L574.8431,508.2369 C570.5971,508.2369 567.0461,511.4589 566.6331,515.6839" id="Fill-11" fill="#91789d"/><path d="M573.7717,480.1702 C624.8937,481.2062 859.6157,485.8822 905.4167,485.3402 C909.5147,485.2922 912.9417,482.2442 913.4837,478.1822 L916.4877,455.6492 C917.1357,450.7932 913.4337,446.4462 908.5367,446.3132 L579.4487,437.3302 C575.4337,437.2212 571.9237,440.0202 571.1357,443.9582 L565.8667,470.3062 C564.8587,475.3432 568.6357,480.0662 573.7717,480.1702" id="Fill-13" fill="#91789d"/><path d="M247.1389,56.1995 C248.0879,68.9175 268.3989,67.0195 269.3479,55.6525 C270.6099,40.5425 245.9729,40.5785 247.1389,56.1995" id="Fill-15" fill="#5d3b6e"/><path d="M311.6892,56.1995 C312.6382,68.9175 332.9492,67.0195 333.8982,55.6525 C335.1602,40.5425 310.5232,40.5785 311.6892,56.1995" id="Fill-17" fill="#5d3b6e"/><path d="M378.2449,56.1995 C379.1939,68.9175 399.5049,67.0195 400.4539,55.6525 C401.7159,40.5425 377.0789,40.5785 378.2449,56.1995" id="Fill-19" fill="#5d3b6e"/><g id="Group-23" transform="translate(0.000000, 131.945000)"><mask id="uiscreen-1-mask-2" fill="#ffffff"><use xlink:href="#uiscreen-1-path-1" fill="#ffffff"/></mask><g id="Clip-22"/><path d="M175.1536,118.2516 L130.1296,22.4846 C128.5766,19.1826 123.6556,20.0526 123.3296,23.6876 L112.8106,140.9016 C112.6446,142.7466 111.0996,144.1596 109.2476,144.1596 L3.5836,144.1596 C-0.0284,144.1596 -1.3644,148.9026 1.7166,150.7876 L81.1096,199.3656 C82.9836,200.5126 83.3956,203.0576 81.9706,204.7306 C67.8256,221.3526 3.1566,297.4866 5.4456,297.4866 C7.6706,297.4866 89.5156,270.5196 111.4426,263.2806 C113.9376,262.4566 116.4246,264.5186 116.0986,267.1256 L102.0596,379.4396 C101.6146,382.9976 106.0976,384.9246 108.3736,382.1526 L184.0146,290.0356 C185.5276,288.1926 188.3856,288.3186 189.7316,290.2866 L247.7526,375.1436 C249.8376,378.1916 254.6126,376.4656 254.2656,372.7876 L243.0296,253.6876 C242.8536,251.8206 244.1496,250.1346 245.9986,249.8236 L347.6486,232.7586 C351.2016,232.1626 351.7426,227.2796 348.4066,225.9196 L257.3846,188.8106 C254.3436,187.5706 254.4406,183.2316 257.5336,182.1296 L366.7726,143.1646 C370.4366,141.8576 369.6756,136.4676 365.7926,136.2266 L248.5006,128.9406 C246.6746,128.8276 245.2276,127.3536 245.1496,125.5236 L239.9426,4.2826 C239.7806,0.5106 234.6426,-0.4704 233.1026,2.9786 L181.6566,118.1886 C180.4086,120.9826 176.4556,121.0216 175.1536,118.2516" id="Fill-21" fill="#c19aba" mask="url(#uiscreen-1-mask-2)"/></g><g id="Group-26" transform="translate(560.000000, 205.945000)"><mask id="uiscreen-1-mask-4" fill="#ffffff"><use xlink:href="#uiscreen-1-path-3" fill="#ffffff"/></mask><g id="Clip-25"/><path d="M0.448,84.2975 C0.07,120.1935 13.448,162.0725 84.043,159.0815 C154.639,156.0905 154.639,121.9885 198.313,151.3045 C229.029,171.9215 278.504,177.9815 320.361,138.7395 C339.506,120.7915 375.646,134.1285 404.119,144.1245 C460.356,163.8675 516.433,125.7635 516.594494,78.3155 C516.8,17.3805 452.579,-8.9435 371.812,17.3805 C344.322,26.3405 329.835,17.0775 313.181,11.9065 C280.906,1.8855 253.792,-11.2515 201.304,23.8715 C201.304,23.8715 174.981,47.8025 125.923,20.8805 C76.864,-6.0415 1.16,16.7265 0.448,84.2975" id="Fill-24" fill="#dbf934" mask="url(#uiscreen-1-mask-4)"/></g></g></g></g><g transform="translate(198.000000, 174.000000) scale(1 1)" id="Master/Character/Standing"><g id="Master/Character/Standing" stroke="none" stroke-width="1" fill="none" fill-rule="evenodd"><g id="Standing/Lower Body" transform="translate(14.000000, 442.000000) scale(1 1)"><g id="Standing/Lower Body/Sstanding" stroke="none" stroke-width="1" fill="none" fill-rule="evenodd"><g id="Group-332" transform="translate(236.000000, -1.000000)"><g id="Group-126" transform="translate(0.000000, 0.142000)"><path d="M72.0978,172.4369 L35.7948,172.4369 C9.5208,172.4369 8.5178,190.2879 8.5178,190.2879 L10.6818,271.3909 C10.6818,271.3909 12.9308,287.5639 39.4058,287.5639 L75.7078,287.5639 C102.1828,287.5639 103.8888,268.5599 103.8888,268.5599 L103.928158,189.2869 C103.928158,189.2869 104.3898,172.4369 72.0978,172.4369" id="Fill-98" fill="#9c440c"/><polygon id="Fill-100" fill="#fafafa" points="9.7379 236.017 103.9279 236.017 103.8879 268.56 10.3719 267.807"/><path d="M64.5915,242.2348 L9.7375,242.2348 L10.1225,250.2568 C10.1225,250.2568 55.2505,250.4588 63.6745,250.2568 C72.0975,250.0568 103.9285,250.3468 103.9285,250.3468 L103.9285,242.3848 C103.9285,242.3848 67.9165,242.2348 64.5915,242.2348" id="Fill-102" fill="#ef6d21"/><path d="M126.7531,268.56 L103.8891,267.689 L61.9691,267.689 C61.9691,267.689 16.9911,267.306 10.3721,267.807 C8.3621,267.959 7.3131,268.61 6.9201,271.391 C6.9201,271.391 6.2101,285.107 8.7681,296.539 L46.8391,296.539 L122.4711,296.539 L162.5351,296.539 C162.5431,296.339 162.5551,296.144 162.5551,295.937 C162.5551,284.806 139.5391,273.975 126.7531,268.56" id="Fill-104" fill="#ef6d21"/><path d="M122.4709,296.5385 L46.8389,296.5385 L8.7679,296.5385 C8.7679,296.5385 5.8129,302.8815 6.9899,307.2315 L47.0539,307.2315 L111.2079,307.2315 L151.2729,307.2315 C151.2729,307.2315 162.1319,307.0665 162.5349,296.5385 L122.4709,296.5385 Z" id="Fill-106" fill="#e0dde0"/><path d="M110.0558,249.7562 C110.0558,249.7562 101.7828,254.8702 102.8348,264.6492 C103.8888,274.4262 116.5408,278.9392 123.8948,273.3732 C141.8798,259.7632 123.4438,242.2352 110.0558,249.7562" id="Fill-108" fill="#ff9a51"/><path d="M126.151,281.8949 C125.678,281.8949 125.205,281.7199 124.836,281.3679 C124.076,280.6409 124.049,279.4369 124.776,278.6769 C128.102,275.1999 135.7,268.4719 136.022,268.1869 C136.809,267.4909 138.012,267.5639 138.708,268.3519 C139.405,269.1389 139.331,270.3409 138.544,271.0379 C138.466,271.1069 130.743,277.9449 127.526,281.3069 C127.152,281.6989 126.652,281.8949 126.151,281.8949" id="Fill-110" fill="#000000"/><path d="M133.6945,284.9115 C133.2225,284.9115 132.7485,284.7355 132.3795,284.3835 C131.6205,283.6565 131.5925,282.4515 132.3195,281.6925 C135.6465,278.2155 143.2435,271.4885 143.5655,271.2035 C144.3525,270.5075 145.5555,270.5805 146.2525,271.3675 C146.9485,272.1545 146.8745,273.3575 146.0875,274.0545 C146.0095,274.1235 138.2865,280.9615 135.0705,284.3235 C134.6965,284.7145 134.1955,284.9115 133.6945,284.9115" id="Fill-112" fill="#000000"/><path d="M140.4128,288.0736 C139.9398,288.0736 139.4658,287.8986 139.0978,287.5466 C138.3378,286.8196 138.3108,285.6146 139.0378,284.8546 C142.3638,281.3786 149.9618,274.6506 150.2838,274.3656 C151.0708,273.6696 152.2738,273.7436 152.9698,274.5306 C153.6658,275.3176 153.5928,276.5206 152.8058,277.2176 C152.7278,277.2856 145.0048,284.1246 141.7878,287.4856 C141.4138,287.8766 140.9138,288.0736 140.4128,288.0736" id="Fill-114" fill="#000000"/><path d="M103.9274,300.5482 C103.4944,300.5482 103.0594,300.4012 102.7024,300.1012 C101.8984,299.4232 101.7954,298.2232 102.4724,297.4192 C102.6664,297.1852 107.2884,291.4682 103.1174,285.2662 C98.6294,278.5912 100.8634,272.4132 100.9604,272.1532 C101.3284,271.1692 102.4234,270.6692 103.4104,271.0382 C104.3904,271.4062 104.8894,272.4962 104.5294,273.4782 C104.4524,273.6912 102.9274,278.1612 106.2764,283.1422 C110.9104,290.0332 107.7194,297.0982 105.3844,299.8702 C105.0074,300.3182 104.4694,300.5482 103.9274,300.5482" id="Fill-116" fill="#000000"/><path d="M106.7956,23.5502 L106.7956,23.5502 C106.7956,10.8472 96.4976,0.5492 83.7946,0.5492 L26.5036,0.5492 C13.8006,0.5492 3.5026,10.8472 3.5026,23.5502 C3.5026,23.5502 4.4566,174.5932 4.4566,184.7952 C4.4566,184.7952 4.1056,190.2872 8.5176,190.2872 L103.8376,190.2872 C103.8376,190.2872 109.7546,190.2872 109.7546,182.7662 C109.7546,175.3452 106.7956,23.5502 106.7956,23.5502" id="Fill-118" fill="#a399b7"/><path d="M4.6588,34.9222 L27.6088,34.9222 C29.7318,34.9222 31.4508,36.6402 31.4458109,38.7632 C31.4258,47.1692 30.0098,66.4942 17.4608,67.0342 C5.0078,67.5692 1.6968,47.9422 0.8388,39.1172 C0.6198,36.8652 2.3968,34.9222 4.6588,34.9222" id="Fill-120" fill="#75618f"/><path d="M66.0016,34.9222 L88.9516,34.9222 C91.0746,34.9222 92.7936,36.6402 92.7886109,38.7632 C92.7686,47.1692 91.3526,66.4942 78.8036,67.0342 C66.3506,67.5692 63.0396,47.9422 62.1816,39.1172 C61.9626,36.8652 63.7396,34.9222 66.0016,34.9222" id="Fill-122" fill="#75618f"/><path d="M44.4865,306.7152 C43.4355,306.7152 42.5835,305.8632 42.5835,304.8122 C42.5835,304.1522 42.6145,303.8222 42.6445,303.4922 C42.6675,303.2502 42.6905,303.0092 42.6905,302.5262 C42.6905,301.9622 42.6875,301.6812 42.6845,301.4002 C42.6815,301.1092 42.6785,300.8182 42.6785,300.2362 C42.6785,299.7852 42.6535,299.5852 42.6215,299.3322 C42.5815,299.0242 42.5325,298.6402 42.5325,297.9452 C42.5325,297.1642 42.6485,296.7042 42.7785,296.2652 C42.8445,296.0392 42.8695,295.9552 42.8695,295.6562 C42.8695,294.9042 42.9485,294.4882 43.0125,294.1542 C43.0605,293.9082 43.0885,293.7602 43.0885,293.3692 C43.0885,293.1642 43.0795,293.1422 42.9965,292.9332 C42.8115,292.4712 42.6315,291.9482 42.6315,291.0822 L42.6285,288.7952 C42.6285,287.7992 42.9085,287.2012 43.0765,286.8432 C43.1645,286.6552 43.1645,286.6552 43.1645,286.5072 C43.1645,285.7522 43.2455,285.3352 43.3105,285.0002 C43.3585,284.7562 43.3865,284.6082 43.3865,284.2192 C43.3865,283.7002 43.3725,283.4412 43.3575,283.1812 C43.3405,282.8682 43.3225,282.5552 43.3225,281.9292 C43.3195,281.9092 43.2875,281.8662 43.2585,281.8212 C43.0205,281.4562 42.5785,280.7762 42.5785,279.6392 C42.5785,278.4672 43.0625,277.7762 43.3225,277.4032 C43.3385,277.3812 43.3555,277.3582 43.3715,277.3352 C43.3555,277.2562 43.3295,277.2182 43.3065,277.1782 C43.0795,276.7962 42.6995,276.1572 42.6995,275.0632 C42.6995,274.2652 42.8255,273.7962 42.9665,273.3482 C43.0355,273.1282 43.0585,273.0542 43.0585,272.7742 C43.0585,272.1052 43.0955,271.7492 43.1275,271.4362 C43.1515,271.1972 43.1755,270.9602 43.1755,270.4852 C43.1755,270.2032 43.1535,270.1282 43.0835,269.9072 C42.9435,269.4602 42.8175,268.9912 42.8175,268.1942 C42.8175,267.4042 42.9235,266.9512 42.9995,266.6202 C43.0535,266.3872 43.0835,266.2592 43.0835,265.9042 C43.0835,265.1162 43.1875,264.6632 43.2625,264.3342 C43.3155,264.1062 43.3445,263.9792 43.3455,263.6422 C43.3275,263.6142 43.3075,263.5882 43.2895,263.5622 C43.0285,263.1912 42.5445,262.4982 42.5445,261.3262 C42.5445,260.6232 42.5985,260.2342 42.6415,259.9212 C42.6765,259.6642 42.7025,259.4792 42.7025,259.0362 C42.7025,258.5912 42.6775,258.4032 42.6425,258.1452 C42.6005,257.8332 42.5485,257.4452 42.5485,256.7452 C42.5485,255.9702 42.6605,255.5142 42.7855,255.0772 C42.8485,254.8542 42.8755,254.7612 42.8755,254.4552 C42.8755,253.8082 42.9015,253.4842 42.9265,253.1592 C42.9465,252.9112 42.9665,252.6632 42.9665,252.1662 C42.9665,251.9822 42.9635,251.9732 42.8755,251.7662 C42.6745,251.2952 42.4795,250.7622 42.4795,249.8752 C42.4795,248.7672 42.8735,248.1222 43.1085,247.7372 C43.1365,247.6922 43.1675,247.6482 43.1915,247.5962 C43.1795,247.2202 43.1505,247.0882 43.0975,246.8512 C43.0255,246.5232 42.9255,246.0752 42.9255,245.2942 C42.9255,244.6982 42.9335,244.4002 42.9415,244.1022 C42.9475,243.8272 42.9545,243.5532 42.9545,243.0042 C42.9545,242.2292 43.0495,241.7822 43.1205,241.4572 C43.1715,241.2242 43.2005,241.0822 43.2005,240.7122 C43.2005,240.6422 43.1945,240.6132 43.1945,240.6132 C43.1765,240.5692 43.1475,240.5242 43.1215,240.4762 C42.9195,240.1032 42.5815,239.4802 42.5815,238.4252 C42.5815,237.5112 42.7815,236.9742 42.9135,236.6182 C42.9925,236.4062 43.0075,236.3682 43.0075,236.1392 C43.0075,235.9802 43.0075,235.9802 42.9175,235.7842 C42.6995,235.3052 42.4865,234.7612 42.4865,233.8522 C42.4865,232.7302 42.8955,232.0812 43.1395,231.6942 C43.1685,231.6482 43.1995,231.6052 43.2245,231.5542 C43.2075,231.1632 43.1775,231.0042 43.1335,230.7632 C43.0715,230.4312 42.9955,230.0182 42.9955,229.2712 C42.9955,228.6052 43.0305,228.2512 43.0625,227.9392 C43.0865,227.6992 43.1095,227.4612 43.1095,226.9832 C43.1095,226.3552 43.1285,226.0402 43.1465,225.7262 C43.1615,225.4682 43.1765,225.2102 43.1765,224.6942 C43.1765,224.1032 43.1815,223.8082 43.1875,223.5132 C43.1925,223.2352 43.1975,222.9572 43.1975,222.4012 C43.1875,222.3502 43.1565,222.3062 43.1285,222.2612 C42.8875,221.8742 42.4855,221.2272 42.4855,220.1112 C42.4855,219.2862 42.6115,218.8162 42.7045,218.4712 C42.7655,218.2442 42.7935,218.1402 42.7935,217.8192 C42.7935,217.2752 42.7845,217.0032 42.7765,216.7322 C42.7665,216.4312 42.7575,216.1292 42.7575,215.5272 C42.7575,214.7052 42.8825,214.2362 42.9735,213.8922 C43.0335,213.6632 43.0615,213.5592 43.0615,213.2342 C43.0615,213.0682 43.0615,213.0682 42.9705,212.8662 C42.7575,212.3882 42.5485,211.8462 42.5485,210.9422 C42.5485,210.0682 42.7335,209.5402 42.9235,209.0752 C43.0075,208.8692 43.0165,208.8482 43.0165,208.6492 C43.0165,208.2922 42.9865,208.1632 42.9325,207.9312 C42.8555,207.5992 42.7505,207.1462 42.7505,206.3542 C42.7505,205.7192 42.7715,205.4022 42.7915,205.0852 C42.8085,204.8302 42.8255,204.5752 42.8255,204.0652 C42.8255,203.1812 43.0005,202.6582 43.1165,202.3132 C43.1885,202.0992 43.2105,202.0342 43.2105,201.7732 C43.2105,201.4972 43.1865,201.4242 43.1165,201.2082 C43.0075,200.8662 42.8405,200.3502 42.8405,199.4782 C42.8405,198.7532 42.9045,198.3522 42.9565,198.0292 C42.9955,197.7832 43.0245,197.6052 43.0245,197.1822 C43.0245,196.3942 43.1435,195.9312 43.2765,195.4872 C43.3435,195.2652 43.3685,195.1812 43.3685,194.8862 C43.3685,194.7372 43.3685,194.7372 43.2785,194.5492 C43.1095,194.1902 42.8255,193.5882 42.8255,192.5872 C42.8255,192.1742 42.7975,192.0092 42.7545,191.7602 C42.6975,191.4322 42.6275,191.0252 42.6275,190.2872 C42.6275,189.3712 42.8275,188.8332 42.9595,188.4772 C43.0375,188.2672 43.0535,188.2232 43.0535,187.9902 C43.0535,187.3702 43.0685,187.0612 43.0845,186.7502 C43.0965,186.4862 43.1095,186.2232 43.1095,185.6942 C43.1095,185.0902 43.1195,184.7872 43.1295,184.4852 C43.1375,184.2132 43.1465,183.9422 43.1465,183.3992 C43.1465,182.9472 43.1205,182.7482 43.0875,182.4952 C43.0475,182.1852 42.9975,181.7982 42.9975,181.1012 C42.9975,180.8372 42.9755,180.7722 42.9035,180.5572 C42.7875,180.2102 42.6115,179.6872 42.6115,178.8012 C42.6115,178.3152 42.5885,178.0712 42.5665,177.8282 C42.5355,177.4972 42.5045,177.1652 42.5045,176.5022 C42.5045,175.8312 42.5405,175.4762 42.5725,175.1612 C42.5965,174.9222 42.6215,174.6832 42.6215,174.2042 C42.6215,173.6422 42.6175,173.3602 42.6145,173.0782 C42.6115,172.7852 42.6075,172.4922 42.6075,171.9062 C42.6075,171.2712 42.6285,170.9522 42.6495,170.6352 C42.6655,170.3782 42.6825,170.1222 42.6825,169.6102 C42.6825,168.8312 42.7965,168.3722 42.9235,167.9342 C42.9875,167.7102 43.0135,167.6172 43.0135,167.3122 C43.0135,166.5632 43.0905,166.1492 43.1525,165.8172 C43.1965,165.5732 43.2265,165.4132 43.2265,165.0122 C43.2265,164.5732 43.1995,164.3892 43.1625,164.1342 C43.1165,163.8182 43.0605,163.4242 43.0605,162.7122 C43.0605,162.0762 43.0805,161.7592 43.1015,161.4412 C43.1175,161.1842 43.1345,160.9272 43.1345,160.4142 C43.1345,160.0452 43.1055,159.9132 43.0525,159.6722 C42.9815,159.3452 42.8835,158.8972 42.8835,158.1162 C42.8835,157.2562 43.0575,156.7362 43.2365,156.2772 C43.3185,156.0672 43.3315,156.0342 43.3315,155.8182 C43.3315,155.4732 43.3025,155.3562 43.2445,155.1222 C43.1615,154.7852 43.0475,154.3222 43.0475,153.5172 C43.0475,153.2302 43.0225,153.1482 42.9545,152.9302 C42.8165,152.4822 42.6925,152.0142 42.6925,151.2182 C42.6925,150.4292 42.8125,149.9652 42.9455,149.5222 C43.0125,149.2982 43.0375,149.2142 43.0375,148.9192 C43.0375,148.4972 43.0085,148.3192 42.9685,148.0732 C42.9165,147.7502 42.8515,147.3482 42.8515,146.6202 C42.8515,145.7112 43.0625,145.1662 43.2785,144.6872 C43.3575,144.5132 43.3685,144.4882 43.3695,144.3792 C43.3535,144.3582 43.3365,144.3372 43.3195,144.3152 C43.0355,143.9362 42.5045,143.2322 42.5045,142.0212 C42.5045,141.3752 42.5285,141.0522 42.5525,140.7292 C42.5715,140.4772 42.5905,140.2252 42.5905,139.7212 C42.5905,139.0642 42.6185,138.7352 42.6475,138.4062 C42.6685,138.1602 42.6905,137.9132 42.6905,137.4202 C42.6905,136.6222 42.8155,136.1532 42.9545,135.7062 C43.0245,135.4832 43.0475,135.4082 43.0475,135.1232 C43.0475,134.8452 43.0245,134.7712 42.9545,134.5512 C42.8125,134.1012 42.6835,133.6302 42.6835,132.8292 C42.6835,132.0132 42.8045,131.5462 42.8925,131.2052 C42.9515,130.9792 42.9805,130.8652 42.9805,130.5322 C42.9805,130.0612 42.9545,129.8242 42.9285,129.5892 C42.8945,129.2712 42.8555,128.9102 42.8555,128.2332 C42.8555,127.3222 43.0685,126.7782 43.2865,126.2962 C43.3775,126.0972 43.3775,126.0972 43.3775,125.9342 C43.3765,125.9282 43.3435,125.8852 43.3145,125.8402 C43.0685,125.4722 42.6115,124.7862 42.6115,123.6362 C42.6115,122.7562 42.8005,122.2262 42.9945,121.7572 C43.0815,121.5502 43.0885,121.5322 43.0885,121.3372 C43.0885,120.7212 43.1015,120.4132 43.1145,120.1052 C43.1255,119.8372 43.1375,119.5692 43.1375,119.0352 C43.1375,118.5482 43.1145,118.3042 43.0925,118.0612 C43.0625,117.7292 43.0315,117.3992 43.0315,116.7362 C43.0315,116.2222 43.0155,115.9642 42.9985,115.7062 C42.9785,115.3892 42.9585,115.0702 42.9585,114.4352 C42.9585,114.2642 42.9585,114.2642 42.8665,114.0572 C42.6545,113.5792 42.4465,113.0372 42.4465,112.1342 C42.4465,111.0532 42.8095,110.4182 43.0265,110.0382 C43.0535,109.9912 43.0845,109.9452 43.1065,109.8922 C43.1045,109.3862 43.0785,109.1982 43.0435,108.9402 C42.9995,108.6262 42.9465,108.2362 42.9465,107.5302 C42.9465,106.8372 42.9935,106.4532 43.0315,106.1462 C43.0635,105.8892 43.0885,105.6862 43.0885,105.2282 C43.0885,105.1012 43.0885,105.1012 43.0015,104.9262 C42.8195,104.5612 42.5135,103.9492 42.5135,102.9242 C42.5135,102.3902 42.5025,102.1222 42.4915,101.8562 C42.4785,101.5482 42.4655,101.2402 42.4655,100.6262 C42.4655,99.5352 42.8395,98.8962 43.0625,98.5142 C43.0895,98.4682 43.1205,98.4232 43.1435,98.3692 C43.1385,97.6872 43.1595,97.3672 43.1805,97.0472 C43.1975,96.7912 43.2145,96.5342 43.2145,96.0202 C43.2145,95.5162 43.1945,95.2642 43.1755,95.0122 C43.1525,94.6882 43.1275,94.3632 43.1275,93.7162 C43.1275,92.9892 43.1915,92.5882 43.2415,92.2662 C43.2815,92.0172 43.3095,91.8372 43.3095,91.4112 C43.2975,91.3512 43.2665,91.3062 43.2375,91.2602 C42.9965,90.8712 42.5935,90.2222 42.5935,89.1032 C42.5935,88.2332 42.7735,87.7082 42.9575,87.2442 C43.0415,87.0332 43.0525,87.0062 43.0525,86.7942 C43.0525,85.7422 43.9045,84.8912 44.9555,84.8912 C46.0065,84.8912 46.8585,85.7422 46.8585,86.7942 C46.8585,87.6622 46.6785,88.1882 46.4945,88.6512 C46.4105,88.8622 46.3995,88.8902 46.3995,89.1032 C46.4115,89.1622 46.4425,89.2072 46.4715,89.2532 C46.7125,89.6422 47.1155,90.2912 47.1155,91.4112 C47.1155,92.1372 47.0525,92.5382 47.0015,92.8612 C46.9615,93.1102 46.9335,93.2892 46.9335,93.7162 C46.9335,94.2212 46.9525,94.4732 46.9715,94.7252 C46.9955,95.0492 47.0205,95.3732 47.0205,96.0202 C47.0205,96.6582 46.9995,96.9782 46.9785,97.2972 C46.9615,97.5542 46.9445,97.8112 46.9445,98.3242 C46.9445,99.4152 46.5705,100.0542 46.3475,100.4362 C46.3205,100.4832 46.2895,100.5282 46.2665,100.5812 C46.2715,101.1602 46.2825,101.4282 46.2945,101.6952 C46.3075,102.0032 46.3195,102.3102 46.3195,102.9242 C46.3195,103.0522 46.3195,103.0522 46.4075,103.2272 C46.5895,103.5922 46.8945,104.2032 46.8945,105.2282 C46.8945,105.9202 46.8475,106.3042 46.8095,106.6122 C46.7775,106.8692 46.7525,107.0712 46.7525,107.5302 C46.7525,107.9762 46.7785,108.1622 46.8145,108.4222 C46.8575,108.7362 46.9105,109.1262 46.9105,109.8312 C46.9105,110.9122 46.5475,111.5482 46.3305,111.9272 C46.3035,111.9752 46.2735,112.0202 46.2505,112.0742 C46.2525,112.3052 46.2525,112.3052 46.3445,112.5112 C46.5565,112.9882 46.7645,113.5302 46.7645,114.4352 C46.7645,114.9492 46.7805,115.2072 46.7975,115.4642 C46.8175,115.7822 46.8375,116.1002 46.8375,116.7362 C46.8375,117.2242 46.8605,117.4682 46.8825,117.7112 C46.9125,118.0422 46.9435,118.3732 46.9435,119.0352 C46.9435,119.6522 46.9305,119.9592 46.9175,120.2682 C46.9055,120.5352 46.8945,120.8022 46.8945,121.3372 C46.8945,122.2172 46.7045,122.7472 46.5105,123.2152 C46.4245,123.4232 46.4175,123.4412 46.4175,123.6362 C46.4185,123.6412 46.4515,123.6842 46.4805,123.7292 C46.7265,124.0972 47.1835,124.7822 47.1835,125.9342 C47.1835,126.8442 46.9705,127.3892 46.7525,127.8692 C46.6615,128.0692 46.6615,128.0692 46.6615,128.2332 C46.6615,128.7052 46.6875,128.9412 46.7125,129.1772 C46.7475,129.4942 46.7865,129.8552 46.7865,130.5322 C46.7865,131.3492 46.6655,131.8162 46.5775,132.1562 C46.5195,132.3832 46.4895,132.4962 46.4895,132.8292 C46.4895,133.1092 46.5135,133.1822 46.5835,133.4012 C46.7255,133.8512 46.8545,134.3212 46.8545,135.1232 C46.8545,135.9212 46.7285,136.3902 46.5895,136.8382 C46.5195,137.0612 46.4965,137.1362 46.4965,137.4202 C46.4965,138.0772 46.4675,138.4052 46.4395,138.7352 C46.4185,138.9812 46.3965,139.2282 46.3965,139.7212 C46.3965,140.3662 46.3725,140.6902 46.3485,141.0122 C46.3305,141.2542 46.3125,141.4962 46.3105,141.9602 C46.3275,141.9822 46.3445,142.0032 46.3615,142.0262 C46.6455,142.4032 47.1765,143.1092 47.1765,144.3192 C47.1765,145.2282 46.9655,145.7732 46.7485,146.2522 C46.6575,146.4542 46.6575,146.4542 46.6575,146.6202 C46.6575,147.0412 46.6865,147.2192 46.7265,147.4652 C46.7785,147.7882 46.8435,148.1922 46.8435,148.9192 C46.8435,149.7082 46.7235,150.1722 46.5905,150.6162 C46.5235,150.8392 46.4985,150.9232 46.4985,151.2182 C46.4985,151.5052 46.5235,151.5872 46.5915,151.8052 C46.7295,152.2522 46.8545,152.7202 46.8545,153.5172 C46.8545,153.8612 46.8825,153.9782 46.9405,154.2122 C47.0235,154.5492 47.1375,155.0112 47.1375,155.8182 C47.1375,156.6782 46.9625,157.1982 46.7835,157.6572 C46.7015,157.8672 46.6895,157.9002 46.6895,158.1162 C46.6895,158.4862 46.7185,158.6172 46.7715,158.8592 C46.8425,159.1862 46.9405,159.6342 46.9405,160.4142 C46.9405,161.0512 46.9205,161.3682 46.8995,161.6862 C46.8825,161.9442 46.8665,162.1992 46.8665,162.7122 C46.8665,163.1522 46.8925,163.3352 46.9305,163.5912 C46.9755,163.9072 47.0325,164.3012 47.0325,165.0122 C47.0325,165.7612 46.9565,166.1752 46.8945,166.5082 C46.8495,166.7502 46.8195,166.9112 46.8195,167.3122 C46.8195,168.0902 46.7065,168.5492 46.5795,168.9882 C46.5155,169.2122 46.4885,169.3042 46.4885,169.6102 C46.4885,170.2462 46.4675,170.5642 46.4475,170.8822 C46.4305,171.1392 46.4135,171.3952 46.4135,171.9062 C46.4135,172.4712 46.4175,172.7522 46.4205,173.0332 C46.4235,173.3262 46.4275,173.6192 46.4275,174.2042 C46.4275,174.8752 46.3915,175.2322 46.3595,175.5462 C46.3355,175.7842 46.3105,176.0242 46.3105,176.5022 C46.3105,176.9882 46.3335,177.2332 46.3555,177.4762 C46.3865,177.8072 46.4175,178.1392 46.4175,178.8012 C46.4175,179.0662 46.4395,179.1312 46.5115,179.3472 C46.6275,179.6932 46.8035,180.2162 46.8035,181.1012 C46.8035,181.5522 46.8295,181.7512 46.8625,182.0042 C46.9025,182.3142 46.9525,182.7002 46.9525,183.3992 C46.9525,184.0032 46.9435,184.3062 46.9335,184.6092 C46.9245,184.8802 46.9155,185.1522 46.9155,185.6942 C46.9155,186.3152 46.9015,186.6252 46.8855,186.9352 C46.8735,187.1992 46.8605,187.4632 46.8605,187.9902 C46.8605,188.9062 46.6605,189.4442 46.5285,189.8012 C46.4505,190.0112 46.4335,190.0552 46.4335,190.2872 C46.4335,190.6992 46.4625,190.8642 46.5055,191.1132 C46.5615,191.4422 46.6325,191.8492 46.6325,192.5872 C46.6325,192.7362 46.6325,192.7362 46.7205,192.9252 C46.8905,193.2832 47.1745,193.8852 47.1745,194.8862 C47.1745,195.6742 47.0555,196.1382 46.9225,196.5812 C46.8555,196.8042 46.8305,196.8872 46.8305,197.1822 C46.8305,197.9072 46.7665,198.3082 46.7145,198.6312 C46.6745,198.8772 46.6465,199.0552 46.6465,199.4782 C46.6465,199.7522 46.6705,199.8252 46.7395,200.0412 C46.8495,200.3832 47.0165,200.9002 47.0165,201.7732 C47.0165,202.6562 46.8405,203.1792 46.7245,203.5242 C46.6535,203.7382 46.6315,203.8032 46.6315,204.0652 C46.6315,204.6992 46.6105,205.0162 46.5905,205.3332 C46.5735,205.5882 46.5565,205.8432 46.5565,206.3542 C46.5565,206.7102 46.5865,206.8392 46.6405,207.0712 C46.7175,207.4032 46.8225,207.8572 46.8225,208.6492 C46.8225,209.5232 46.6365,210.0502 46.4465,210.5152 C46.3615,210.7252 46.3545,210.7412 46.3545,210.9422 C46.3545,211.1072 46.3545,211.1072 46.4445,211.3092 C46.6585,211.7872 46.8675,212.3292 46.8675,213.2342 C46.8675,214.0552 46.7425,214.5262 46.6525,214.8682 C46.5915,215.0972 46.5635,215.2012 46.5635,215.5272 C46.5635,216.0692 46.5715,216.3422 46.5805,216.6122 C46.5905,216.9142 46.5995,217.2152 46.5995,217.8192 C46.5995,218.6422 46.4725,219.1132 46.3805,219.4572 C46.3195,219.6852 46.2915,219.7882 46.2915,220.1112 C46.3015,220.1622 46.3325,220.2062 46.3605,220.2512 C46.6015,220.6382 47.0035,221.2842 47.0035,222.4012 C47.0035,222.9902 46.9985,223.2852 46.9925,223.5812 C46.9885,223.8602 46.9835,224.1372 46.9835,224.6942 C46.9835,225.3212 46.9645,225.6352 46.9455,225.9502 C46.9315,226.2082 46.9155,226.4662 46.9155,226.9832 C46.9155,227.6502 46.8805,228.0032 46.8495,228.3162 C46.8255,228.5552 46.8015,228.7932 46.8015,229.2712 C46.8015,229.6692 46.8315,229.8282 46.8765,230.0702 C46.9375,230.4022 47.0135,230.8152 47.0135,231.5622 C47.0135,232.6842 46.6055,233.3332 46.3605,233.7212 C46.3325,233.7662 46.3005,233.8102 46.2765,233.8612 C46.2925,234.0112 46.2925,234.0112 46.3825,234.2072 C46.6005,234.6872 46.8135,235.2312 46.8135,236.1392 C46.8135,237.0532 46.6135,237.5902 46.4815,237.9452 C46.4025,238.1572 46.3875,238.1952 46.3875,238.4252 C46.3875,238.4952 46.3945,238.5242 46.3945,238.5252 C46.4125,238.5692 46.4425,238.6142 46.4675,238.6632 C46.6695,239.0352 47.0075,239.6582 47.0075,240.7122 C47.0075,241.4872 46.9115,241.9342 46.8415,242.2592 C46.7905,242.4922 46.7605,242.6342 46.7605,243.0042 C46.7605,243.6002 46.7535,243.8992 46.7455,244.1962 C46.7395,244.4712 46.7325,244.7452 46.7325,245.2942 C46.7325,245.6582 46.7605,245.7902 46.8145,246.0282 C46.8865,246.3562 46.9855,246.8042 46.9855,247.5842 C46.9855,248.6932 46.5915,249.3372 46.3555,249.7222 C46.3275,249.7682 46.2975,249.8122 46.2735,249.8632 C46.2855,250.0602 46.2885,250.0682 46.3765,250.2762 C46.5765,250.7462 46.7725,251.2792 46.7725,252.1662 C46.7725,252.8142 46.7475,253.1382 46.7205,253.4612 C46.7015,253.7102 46.6815,253.9582 46.6815,254.4552 C46.6815,255.2312 46.5695,255.6862 46.4445,256.1232 C46.3815,256.3472 46.3545,256.4402 46.3545,256.7452 C46.3545,257.1912 46.3795,257.3782 46.4145,257.6372 C46.4565,257.9482 46.5085,258.3362 46.5085,259.0362 C46.5085,259.7392 46.4545,260.1292 46.4125,260.4422 C46.3775,260.6942 46.3515,260.8772 46.3505,261.3002 C46.3695,261.3262 46.3885,261.3532 46.4075,261.3792 C46.6675,261.7512 47.1525,262.4432 47.1525,263.6152 C47.1525,264.4032 47.0485,264.8562 46.9725,265.1862 C46.9195,265.4192 46.8895,265.5482 46.8895,265.9042 C46.8895,266.6942 46.7845,267.1482 46.7075,267.4802 C46.6535,267.7112 46.6245,267.8392 46.6245,268.1942 C46.6245,268.4772 46.6475,268.5512 46.7165,268.7722 C46.8565,269.2192 46.9825,269.6882 46.9825,270.4852 C46.9825,271.1542 46.9455,271.5102 46.9135,271.8232 C46.8895,272.0622 46.8645,272.2992 46.8645,272.7742 C46.8645,273.5712 46.7385,274.0392 46.5975,274.4882 C46.5285,274.7082 46.5055,274.7812 46.5055,275.0632 C46.5205,275.1442 46.5505,275.1892 46.5785,275.2352 C46.8055,275.6162 47.1855,276.2552 47.1855,277.3502 C47.1855,278.5222 46.7005,279.2142 46.4415,279.5852 C46.4255,279.6082 46.4095,279.6292 46.3945,279.6522 C46.4055,279.6842 46.4285,279.7152 46.4495,279.7472 C46.6875,280.1122 47.1295,280.7922 47.1295,281.9292 C47.1295,282.4482 47.1435,282.7082 47.1585,282.9682 C47.1755,283.2802 47.1935,283.5942 47.1935,284.2192 C47.1935,284.9752 47.1115,285.3922 47.0465,285.7272 C46.9995,285.9712 46.9705,286.1192 46.9705,286.5072 C46.9705,287.5032 46.6905,288.1022 46.5225,288.4592 C46.4345,288.6472 46.4345,288.6472 46.4345,288.7952 L46.4375,291.0822 C46.4375,291.2872 46.4455,291.3092 46.5295,291.5192 C46.7145,291.9802 46.8945,292.5032 46.8945,293.3692 C46.8945,294.1212 46.8155,294.5372 46.7515,294.8712 C46.7035,295.1172 46.6755,295.2662 46.6755,295.6562 C46.6755,296.4392 46.5595,296.8992 46.4295,297.3392 C46.3635,297.5642 46.3385,297.6482 46.3385,297.9452 C46.3385,298.3982 46.3645,298.5972 46.3965,298.8502 C46.4355,299.1582 46.4855,299.5432 46.4855,300.2362 C46.4855,300.8002 46.4875,301.0802 46.4905,301.3622 C46.4935,301.6532 46.4965,301.9442 46.4965,302.5262 C46.4965,303.1852 46.4655,303.5152 46.4345,303.8452 C46.4125,304.0872 46.3895,304.3282 46.3895,304.8122 C46.3895,305.8632 45.5375,306.7152 44.4865,306.7152" id="Fill-124" fill="#000000"/></g></g></g></g><g id="Upper Body" transform="translate(-1.000000, 0.000000) scale(1 1)"><g id="Upper Body/Waving" stroke="none" stroke-width="1" fill="none" fill-rule="evenodd"><g id="Group-691" transform="translate(220.500000, 222.500000)"><g id="Group-285" transform="translate(0.000000, 0.095000)"><path d="M131.8575,79.9957 L177.7735,94.3937 C177.7735,94.3937 196.6615,101.1827 203.1265,93.7957 C218.4975,76.2267 230.3755,55.8647 230.3755,55.8647 C230.3755,55.8647 227.1445,47.6377 227.0565,38.1227 C226.9755,29.3327 228.9785,16.2387 235.7655,16.8377 C241.9695,17.3847 240.3575,33.4067 240.3575,33.4067 C240.3575,33.4067 253.6325,-3.4253 264.8615,0.5427 C264.8615,0.5427 269.2035,3.1627 265.2355,12.5197 C265.2355,12.5197 269.6115,3.5827 275.7915,5.6337 C280.9825,7.3547 276.0905,17.5357 276.0905,17.5357 C276.0905,17.5357 281.2605,11.0977 286.2725,12.8947 C291.699528,14.8417 283.5775,32.9577 283.5775,32.9577 C283.5775,32.9577 287.3955,28.3157 290.6145,30.5617 C293.8335,32.8077 290.0835,47.6447 276.7645,59.9077 C268.5845,67.4387 264.2965,68.8727 259.4715,77.8747 C255.0045,86.2087 243.6505,107.5697 222.2905,127.9327 C203.6525,145.6987 174.0035,132.6057 144.7395,125.3637 L131.8575,79.9957 Z" id="Fill-239" fill="#9c440c"/><path d="M131.8575,80.0319 C131.8575,80.0319 145.0855,80.6589 152.7805,81.0019 C162.6375,81.4399 174.0635,80.7519 171.1915,92.3299 C170.3775,95.6139 160.1795,132.8779 160.1795,132.8779 C160.1795,132.8779 159.1815,137.0349 155.3575,136.0369 C151.5335,135.0399 146.8775,132.9299 146.8775,132.9299 L131.8575,80.0319 Z" id="Fill-241" fill="#b2d01e"/><path d="M131.8575,80.0319 L174.6055,230.5859 C176.6265,237.7029 171.2805,244.7779 163.8815,244.7779 L15.2535,244.7779 C7.8635,244.7779 2.6105,237.5859 4.8595,230.5459 L52.9345,80.0319 L131.8575,80.0319 Z" id="Fill-243" fill="#b2d01e"/><path d="M4.1016,157.6158 L23.5756,115.8428 C23.5756,115.8428 31.3066,99.2458 44.9216,100.6018 C67.2516,102.8258 55.7826,128.3388 55.7826,128.3388 L41.7496,163.0588 C41.7496,163.0588 36.0466,176.5048 43.4016,186.2508 C49.1006,193.8018 66.6436,218.2778 66.6436,218.2778 C66.6436,218.2778 79.6216,235.1348 73.0096,248.5528 C66.9166,260.9188 47.2636,274.6738 31.2526,262.9698 C11.8426,248.7818 21.7036,228.7978 32.1896,226.7378 L9.6256,199.6798 C9.6256,199.6798 -6.9224,180.9298 4.1016,157.6158" id="Fill-245" fill="#9c440c"/><path d="M78.2051,86.8512 C75.3451,92.7332 84.2761,98.1732 87.5641,91.6192 C91.2841,84.2032 81.4131,80.2532 78.2051,86.8512" id="Fill-247" fill="#fafafa"/><path d="M89.8438,96.5778 C86.9848,102.4608 95.9158,107.9008 99.2028,101.3458 C102.9228,93.9298 93.0518,89.9798 89.8438,96.5778" id="Fill-249" fill="#fafafa"/><path d="M105.5679,98.3239 C102.7079,104.2059 111.6389,109.6459 114.9269,103.0919 C118.6469,95.6759 108.7759,91.7259 105.5679,98.3239" id="Fill-251" fill="#fafafa"/><path d="M119.3804,92.7692 C116.5204,98.6512 125.4514,104.0912 128.7394,97.5372 C132.4594,90.1212 122.5884,86.1712 119.3804,92.7692" id="Fill-253" fill="#fafafa"/><path d="M129.9966,86.3707 C132.2916,92.4947 142.3876,89.7667 139.8986,82.8687 C137.0846,75.0637 127.4226,79.5007 129.9966,86.3707" id="Fill-255" fill="#fafafa"/><path d="M253.955097,35.6139 C253.7581,35.6139 253.5581,35.5749 253.3651,35.4919 C252.6031,35.1659 252.2501,34.2839 252.5771,33.5219 C254.9751,27.9269 263.5601,12.4489 263.9241,11.7929 C264.3261,11.0689 265.2401,10.8059 265.9641,11.2089 C266.6881,11.6109 266.9491,12.5239 266.5471,13.2489 C266.4591,13.4079 257.6721,29.2489 255.3341,34.7039 C255.0901,35.2729 254.5371,35.6139 253.955097,35.6139" id="Fill-257" fill="#000000"/><path d="M264.2632,41.5699 C264.0572,41.5699 263.8472,41.5269 263.6472,41.4359 C262.8922,41.0959 262.5562,40.2079 262.8972,39.4529 C265.1902,34.3689 274.3842,17.5309 274.7742,16.8169 C275.1712,16.0899 276.0832,15.8239 276.8102,16.2189 C277.5372,16.6169 277.8042,17.5279 277.4072,18.2559 C277.3122,18.4289 267.8782,35.7059 265.6312,40.6859 C265.3812,41.2409 264.8352,41.5699 264.2632,41.5699" id="Fill-259" fill="#000000"/><path d="M274.2393,47.5846 C273.9643,47.5846 273.6853,47.5086 273.4363,47.3506 C272.7373,46.9056 272.5303,45.9796 272.9743,45.2796 C274.8303,42.3596 282.0603,32.4896 282.3663,32.0706 C282.8573,31.4026 283.7953,31.2596 284.4633,31.7476 C285.1313,32.2366 285.2763,33.1756 284.7863,33.8446 C284.7123,33.9456 277.3093,44.0526 275.5073,46.8896 C275.2203,47.3386 274.7353,47.5846 274.2393,47.5846" id="Fill-261" fill="#000000"/><path d="M250.2398,56.8668 C250.1158,56.8668 249.9898,56.8508 249.8638,56.8178 C249.0618,56.6108 248.5788,55.7928 248.7868,54.9908 C251.5928,44.1288 239.5628,34.6888 239.4418,34.5948 C239.0008,34.2548 238.7838,33.6978 238.8798,33.1488 C239.3528,30.4198 240.0688,22.6538 237.7168,19.5468 C237.1568,18.8068 236.4878,18.4208 235.6108,18.3298 C230.5948,17.7888 229.5818,26.9808 229.5718,27.0728 C229.4868,27.8958 228.7508,28.4938 227.9258,28.4098 C227.1018,28.3248 226.5028,27.5898 226.5878,26.7658 C226.6158,26.4828 227.3398,19.8018 231.0378,16.7928 C232.4508,15.6428 234.0938,15.1578 235.9198,15.3458 C237.6338,15.5228 239.0438,16.3278 240.1108,17.7388 C243.2008,21.8248 242.3718,29.9788 241.9708,32.7898 C244.7628,35.1658 254.5978,44.4898 251.6908,55.7408 C251.5168,56.4178 250.9068,56.8668 250.2398,56.8668" id="Fill-263" fill="#000000"/><path d="M33.6153,243.4987 C33.3323,243.4987 33.0463,243.4187 32.7913,243.2517 C32.0993,242.7957 31.9083,241.8647 32.3643,241.1737 C33.7443,239.0777 36.1143,236.5907 37.4653,235.2357 L31.0483,227.7107 C30.5103,227.0807 30.5853,226.1347 31.2163,225.5967 C31.8453,225.0587 32.7933,225.1347 33.3303,225.7647 L40.6563,234.3537 C41.1743,234.9617 41.1263,235.8677 40.5473,236.4167 C40.5083,236.4527 36.6463,240.1247 34.8693,242.8237 C34.5813,243.2617 34.1033,243.4987 33.6153,243.4987" id="Fill-265" fill="#000000"/><path d="M52.9341,80.0319 C52.9341,80.0319 34.3121,78.5079 26.6641,94.6049 C20.6071,107.3519 10.8501,112.9429 6.4291,121.0029 C4.5231,124.4769 5.8481,128.8389 9.3591,130.6779 L46.8511,150.3219 C50.2471,152.1009 53.8591,150.4569 56.3191,147.5149 C61.7471,141.0249 65.2621,127.8519 67.7331,121.4049 C73.9341,105.2209 75.1731,81.0429 52.9341,80.0319" id="Fill-267" fill="#b2d01e"/><path d="M53.5513,151.4235 C53.3133,151.4235 53.0723,151.3665 52.8473,151.2475 C52.1163,150.8585 51.8393,149.9495 52.2283,149.2185 C52.3983,148.9005 69.2173,117.3025 72.5663,109.8465 C72.9053,109.0905 73.7923,108.7525 74.5493,109.0935 C75.3043,109.4325 75.6413,110.3195 75.3023,111.0755 C71.9123,118.6225 55.5713,149.3245 54.8773,150.6285 C54.6073,151.1345 54.0883,151.4235 53.5513,151.4235" id="Fill-269" fill="#000000"/><path d="M146.8931,134.4264 C146.2391,134.4264 145.6381,133.9944 145.4511,133.3344 C145.2231,132.5294 145.2511,132.0264 145.2721,131.6584 C145.2871,131.4074 145.2931,131.2924 145.2021,130.9724 C145.1221,130.6924 145.0701,130.6244 144.9141,130.4264 C144.6141,130.0414 144.3261,129.6324 144.1041,128.8514 C143.9801,128.4134 143.8951,128.2394 143.7791,127.9954 C143.6391,127.7054 143.4651,127.3444 143.2701,126.6574 C142.9901,125.6714 143.1981,124.9904 143.3221,124.5834 C143.3961,124.3424 143.3961,124.3424 143.3571,124.2054 C143.3211,124.1324 143.2271,124.0664 143.1601,124.0174 C142.7741,123.7394 142.1281,123.2774 141.8251,122.2114 C141.5851,121.3644 141.6481,120.8104 141.6901,120.4434 C141.7191,120.1954 141.7281,120.1114 141.6501,119.8344 C141.4411,119.1004 141.4261,118.6664 141.4131,118.3194 C141.4041,118.0674 141.3981,117.9014 141.2891,117.5154 C141.2501,117.3794 141.2501,117.3794 141.0601,117.2124 C140.7411,116.9324 140.2061,116.4624 139.9261,115.4754 C139.6471,114.4934 139.8501,113.8164 139.9711,113.4114 C140.0431,113.1674 140.0431,113.1674 140.0031,113.0264 C139.9501,112.8374 139.9321,112.8194 139.7531,112.6394 C139.4581,112.3414 139.0121,111.8914 138.7471,110.9584 C138.5211,110.1604 138.9831,109.3314 139.7811,109.1064 C140.5781,108.8814 141.4071,109.3424 141.6331,110.1394 C141.6861,110.3284 141.7051,110.3474 141.8831,110.5274 C142.1791,110.8244 142.6241,111.2744 142.8901,112.2064 C143.1681,113.1904 142.9661,113.8664 142.8451,114.2714 C142.7721,114.5154 142.7721,114.5154 142.8121,114.6554 C142.8511,114.7914 142.8511,114.7914 143.0401,114.9584 C143.3601,115.2394 143.8941,115.7084 144.1751,116.6964 C144.3841,117.4314 144.3991,117.8644 144.4121,118.2124 C144.4201,118.4634 144.4261,118.6294 144.5361,119.0154 C144.7761,119.8624 144.7131,120.4164 144.6711,120.7834 C144.6431,121.0324 144.6331,121.1154 144.7111,121.3914 C144.7471,121.4634 144.8401,121.5304 144.9091,121.5794 C145.2941,121.8564 145.9401,122.3204 146.2431,123.3864 C146.5231,124.3714 146.3151,125.0534 146.1911,125.4594 C146.1171,125.7014 146.1171,125.7014 146.1561,125.8384 C146.2811,126.2774 146.3651,126.4514 146.4811,126.6944 C146.6221,126.9844 146.7951,127.3454 146.9901,128.0314 C147.0691,128.3114 147.1261,128.3844 147.2781,128.5774 C147.5781,128.9624 147.8671,129.3714 148.0881,130.1544 C148.3171,130.9594 148.2881,131.4624 148.2671,131.8294 C148.2531,132.0814 148.2471,132.1964 148.3371,132.5164 C148.5631,133.3134 148.1001,134.1434 147.3031,134.3684 C147.1661,134.4074 147.0291,134.4264 146.8931,134.4264" id="Fill-271" fill="#000000"/><polygon id="Fill-273" fill="#000000" points="11.6617 141.3981 45.5937 153.6271 46.8517 150.3221 15.2257 133.7521"/><polygon id="Fill-275" fill="#000000" points="169.191 132.0592 174.534 93.3782 171.191 92.3302 161.037 129.7762"/><path d="M198.253,131.7252 C197.442,131.7252 196.934,131.6962 196.831,131.6892 C196.004,131.6372 195.377,130.9252 195.428,130.0992 C195.48,129.2742 196.192,128.6462 197.018,128.6952 C197.147,128.7042 210.028,129.4062 216.435,122.3892 C216.993,121.7772 217.942,121.7332 218.554,122.2922 C219.166,122.8512 219.209,123.7992 218.65,124.4122 C212.561,131.0812 202.07,131.7252 198.253,131.7252" id="Fill-277" fill="#000000"/><path d="M7.4869,185.4674 C6.8539,185.4674 6.2649,185.0634 6.0599,184.4274 C2.2579,172.6334 6.7259,163.3634 6.9189,162.9754 C7.2849,162.2324 8.1849,161.9274 8.9269,162.2944 C9.6699,162.6604 9.9749,163.5594 9.6089,164.3014 C9.5399,164.4454 5.5129,172.9514 8.9149,183.5074 C9.1689,184.2954 8.7359,185.1404 7.9469,185.3954 C7.7949,185.4444 7.6399,185.4674 7.4869,185.4674" id="Fill-279" fill="#000000"/><path d="M108.4263,50.8785 L97.0273,50.8785 C91.8733,50.8785 87.4873,54.5725 86.5713,59.6145 C86.5613,59.6775 86.5523,59.7375 86.5433,59.8005 L86.5373,59.8345 C86.5003,60.0805 86.4623,60.3305 86.4253,60.5795 C85.0983,69.3205 83.4603,80.0315 83.4603,80.0315 L118.8933,80.0315 L118.9653,72.2665 L119.0633,61.6145 C119.1183,55.7015 114.3403,50.8785 108.4263,50.8785" id="Fill-281" fill="#9c440c"/><path d="M118.8931,80.0319 C105.0181,79.0559 101.2271,76.0809 101.3611,73.6039 C101.4801,71.3859 103.5651,71.6949 104.4761,71.7159 C108.4901,71.8049 118.9651,72.2659 118.9651,72.2659" id="Fill-283" fill="#000000"/></g></g></g></g><g id="Head" transform="translate(204.000000, 145.000000) scale(1 1)"><g id="Head/Double Bun" stroke="none" stroke-width="1" fill="none" fill-rule="evenodd"><g id="Group-183" transform="translate(71.000000, 58.000000)"><g id="Group-93" transform="translate(0.000000, 0.738000)"><path d="M80.8934,66.7692 C80.3454,63.0942 74.3224,59.8552 71.6904,58.8062 C70.2904,52.7022 68.8684,47.5952 67.4804,45.0002 C64.7764,39.9432 56.5294,34.6282 43.3404,36.6692 C34.5834,38.0252 25.2574,46.1942 31.3144,60.4152 C31.3144,60.4152 33.0474,63.8622 32.2174,69.5462 C32.1264,70.1722 31.9964,71.0472 31.8404,72.0882 L31.8394,72.0962 C31.5764,73.8562 31.2354,76.1132 30.8624,78.5772 C30.8524,78.6392 30.8434,78.7002 30.8334,78.7632 L30.8284,78.7972 C30.7914,79.0422 30.7534,79.2922 30.7154,79.5412 C30.4864,82.1312 31.1924,90.6072 50.2694,90.7042 L63.2554,91.2292 L63.4534,91.2372 C63.4534,91.2372 67.8054,91.1892 70.4384,91.1892 C75.9134,91.1892 76.8534,85.9702 76.2384,82.1072 C76.0184,80.7262 75.2904,76.4322 74.2844,71.1892 C76.6804,71.0502 81.4244,70.3292 80.8934,66.7692" id="Fill-85" fill="#9c440c"/><path d="M38.8339,32.9577 C49.7449,55.1767 90.0119,38.4277 76.6069,13.2267 C62.0509,-14.1363 25.5479,5.9007 38.8339,32.9577" id="Fill-87" fill="#260e34"/><path d="M45.597,58.8063 C42.526,59.0033 40.241,60.6173 40.109,64.2383 C40.035,66.2843 41.033,68.5083 41.914,70.0573 C42.414,70.9333 41.78,72.0173 40.771,71.9985463 C38.386,71.9553 34.756,71.8783 32.275,71.7763 C32.275,71.7763 26.038,66.2093 26.925,48.6963 C26.925,48.6963 26.814,34.9953 48.651,34.9953 C70.488,34.9953 69.997,48.6963 69.997,48.6963 L52.531,48.6963 C52.531,48.6963 52.198,53.5183 50.313,56.5023 C48.99,58.5983 45.597,58.8063 45.597,58.8063" id="Fill-89" fill="#260e34"/><path d="M3.4686,46.2458 C14.3796,68.4648 54.6466,51.7158 41.2416,26.5158 C26.6866,-0.8472 -9.8174,19.1898 3.4686,46.2458" id="Fill-91" fill="#260e34"/></g></g></g></g><g id="Expression" transform="translate(315.000000, 246.000000) scale(1 1)"><defs><path d="M2.973,1.055 C-0.453,2.37 -2.944,13.004 10.567,16.001 L10.567,16.001 C16.271,17.266 19.387,14.583 19.536,11.9 L19.536,11.9 C19.665,9.554 17.527,7.208 12.869,7.501 L12.869,7.501 C11.822,7.568 10.572,7.073 9.905,5.972 L9.905,5.972 C8.651,3.902 7.906,0.626 4.999,0.626 L4.999,0.626 C4.417,0.626 3.749,0.757 2.973,1.055" id="expressionlaugh-path-1"/></defs><g id="Expression/Laugh" stroke="none" stroke-width="1" fill="none" fill-rule="evenodd"><g id="Group-77" transform="translate(13.400000, 13.300000)"><g id="Group-3" transform="translate(0.000000, 0.116900)"><g id="Group" transform="translate(0.000000, 15.000000)"><path d="M2.973,1.0549 C-0.453,2.3699 -2.944,13.0039 10.567,15.9999 C21.261,18.3719 22.855,6.8709 12.869,7.5009 C11.822,7.5679 10.571,7.0739 9.904,5.9719 C8.4,3.4879 7.63,-0.7321 2.973,1.0549" id="Fill-37" fill="#000000"/><g id="Group-41"><mask id="expressionlaugh-mask-2" fill="#ffffff"><use xlink:href="#expressionlaugh-path-1" fill="#ffffff"/></mask><g id="Clip-40"/><path d="M-3.2101,3.4943 C-3.2101,3.4943 1.3509,2.7393 5.4389,7.3023 C9.5279,11.8643 9.1349,18.8593 9.1349,18.8593 C9.1349,18.8593 -6.6571,11.2823 -3.2101,3.4943" id="Fill-39" fill="#c19aba" mask="url(#expressionlaugh-mask-2)"/></g></g><g id="Group-46" transform="translate(3.000000, 0.000000)"><path d="M3.1312,6.052 C3.7892,6.555 4.7312,6.427 5.2332,5.769 C7.2772,3.086 9.8032,4.136 10.1002,4.271 C10.8412,4.624 11.7342,4.313 12.0932,3.571 C12.4552,2.825 12.1432,1.928 11.3982,1.566 C10.3642,1.065 8.4892,0.66 6.5312,1.268 C5.2702,1.659 3.9732,2.472 2.8462,3.95 C2.3442,4.61 2.4722,5.55 3.1312,6.052" id="Fill-42" fill="#000000"/><path d="M4.6669,6.3596 C4.6669,7.0556 3.7149,7.6196 2.5399,7.6196 C1.3649,7.6196 0.4129,7.0556 0.4129,6.3596 C0.4129,5.6646 1.3649,5.0996 2.5399,5.0996 C3.7149,5.0996 4.6669,5.6646 4.6669,6.3596" id="Fill-44" fill="#fafafa"/></g></g></g></g></g><g id="Facial Hair" transform="translate(311.300000, 250.950000) scale(1 1)"><g id="Facial Hair/None" stroke="none" stroke-width="1" fill="none" fill-rule="evenodd" fill-opacity="0"/></g><g id="Accesories" transform="translate(311.300000, 250.950000) scale(1 1)"><g id="Accesories/None" stroke="none" stroke-width="1" fill="none" fill-rule="evenodd" fill-opacity="0"/></g></g></g></g></svg>