<svg viewBox="127.5 51 790.5000000000001 879.7499999999999" xmlns="http://www.w3.org/2000/svg" xmlns:xlink="http://www.w3.org/1999/xlink" overflow="visible" width="790.5000000000001px" height="879.7499999999999px"><defs><polygon id="masterspot-illustrationplanning-path-1" points="0.6017 0.148 107.7217 0.148 107.7217 265 0.6017 265"/><polygon id="masterspot-illustrationplanning-path-3" points="0.302904145 0.494 189.197939 0.494 189.197939 192.743236 0.302904145 192.743236"/></defs><g id="Master/Spot Illustration/Planning" stroke="none" stroke-width="1" fill="none" fill-rule="evenodd"><g id="Planning" transform="translate(25.000000, 63.000000) scale(1 1)"><defs><polygon id="planningpen-and-paper-path-1" points="0.6017 0.148 107.7217 0.148 107.7217 265 0.6017 265"/><polygon id="planningpen-and-paper-path-3" points="0.302904145 0.494 189.197939 0.494 189.197939 192.743236 0.302904145 192.743236"/></defs><g id="Planning/Pen and Paper" stroke="none" stroke-width="1" fill="none" fill-rule="evenodd"><g id="Group-33" transform="translate(211.000000, 0.000000)"><path d="M438.9089,130.2656 C438.9089,130.2656 178.6299,129.3266 92.8449,136.1146 C92.8449,136.1146 39.2289,134.7336 36.3049,201.7126 C33.3809,268.6916 36.3049,756.1056 36.3049,756.1056 C36.3049,756.1056 33.1369,801.9226 90.8949,801.9226 C138.6619,801.9226 410.6389,794.1236 443.7829,792.1736 C476.9279,790.2246 496.4239,778.5266 497.3989,726.8606 C498.3739,675.1946 497.3989,201.7126 497.3989,201.7126 C497.3989,201.7126 504.2139,130.2716 438.9089,130.2656" id="Fill-1" fill="#ef6d21"/><path d="M467.7341,217.6768 L471.4031,736.9338 C471.4031,736.9338 471.4031,771.7868 442.8441,771.7868 C424.6351,771.7868 370.6711,774.1398 370.6711,774.1398 L46.7991,777.361654 C36.5521,777.4618 28.5211,768.5848 29.6441,758.3988 L35.0051,709.8008 L448.0071,190.3798 L460.2411,197.4818 L467.7341,217.6768 Z" id="Fill-3" fill="#dbf934"/><path d="M112.6662,178.6826 C112.6662,178.6826 84.0712,174.7836 78.5472,203.0526 C75.8872,216.6666 74.3202,312.5316 59.7012,415.8906 C41.7832,542.5626 9.8332,683.0356 0.8862,728.4856 C0.8862,728.4856 -8.0498,763.4166 30.8332,766.7906 C64.5562,769.7176 403.8152,760.9796 403.8152,760.9796 C403.8152,760.9796 427.2112,764.2296 429.8112,736.2846 C431.2812,720.4756 450.9442,571.8786 460.3552,436.3616 C467.5802,332.3276 468.6462,252.3246 467.6032,211.7866 C467.6032,211.7866 469.1282,180.4696 442.1592,177.9856 C414.9442,175.4786 112.6662,178.6826 112.6662,178.6826" id="Fill-5" fill="#fafafa"/><path d="M116.5656,259.1055 L116.5656,229.1055 L131.639572,229.119976 C140.361145,229.139394 147.617677,229.179787 156.044145,229.249682 L181.755469,229.48031 C191.247151,229.552694 199.613176,229.586406 211.067399,229.595134 L218.849033,229.59793 L223.22302,229.608821 C239.088146,229.677932 249.200919,230.071897 263.436175,231.020887 L273.195942,231.697361 C288.582161,232.749984 298.501713,233.143634 315.715571,233.184826 L336.327166,233.205658 C344.562284,233.224783 351.641463,233.261244 359.985352,233.321648 L379.887883,233.476161 C392.168215,233.56381 401.787553,233.598778 416.770396,233.603047 L420.0626,233.6035 L420.0626,263.6035 L400.602002,263.581216 C392.024864,263.557752 384.529228,263.514036 375.198006,263.442104 L359.069343,263.315837 C346.789212,263.228189 337.17012,263.193222 322.187708,263.188953 L317.775136,263.18807 L313.401025,263.177179 C297.535457,263.108067 287.422444,262.714095 273.186982,261.765092 L263.427186,261.088616 C248.041189,260.036007 238.121888,259.642365 220.908535,259.601174 L202.690304,259.583104 C192.291496,259.560032 183.978607,259.507186 173.291878,259.410138 L156.158142,259.251671 C145.089522,259.159123 136.112243,259.117685 123.22661,259.107866 L116.5656,259.1055 Z" id="Stroke-7" fill="#b2d01e" fill-rule="nonzero"/><path d="M110.716,346.475 L110.7165,316.4766 L110.691604,316.475528 C111.105175,316.44068 151.353382,315.564449 179.188685,315.060852 L190.826288,314.855942 L218.461543,314.395096 C223.535613,314.298635 228.931784,314.182895 235.585446,314.029011 L286.310501,312.821779 C290.592976,312.728815 294.401288,312.652477 298.125803,312.584878 L313.529374,312.326271 C328.060568,312.064807 338.157965,311.766475 348.988734,311.324172 L364.052176,310.677801 C374.232776,310.257019 382.506831,309.998666 394.123581,309.775858 L403.544919,309.613434 L404.014081,339.609766 L396.485979,339.736812 C383.55178,339.97388 374.964864,340.244043 363.746039,340.716689 L350.897102,341.271096 C339.821646,341.728143 329.585534,342.036806 315.02152,342.304086 L296.514993,342.619896 C292.195085,342.701552 287.659331,342.796885 282.311743,342.917951 L231.837892,344.122238 C222.863444,344.323465 216.10237,344.452764 208.642666,344.568788 C202.900606,344.658055 197.130133,344.752451 191.338972,344.851561 L166.795608,345.298984 C156.321388,345.501783 145.199712,345.729326 135.645393,345.929938 L110.716,346.475 Z" id="Stroke-9" fill="#b2d01e" fill-rule="nonzero"/><path d="M98.3689,429.0117 L98.3689,399.0117 L107.903426,399.02174 C121.044413,399.052236 130.333099,399.155484 142.730579,399.375794 L159.516672,399.683109 C172.308004,399.898104 182.150172,399.980406 197.960387,399.987232 L204.57056,399.993916 C222.609482,400.04733 233.192372,400.452374 250.021653,401.492455 L255.936844,401.859087 C272.042148,402.834352 282.229904,403.175563 300.890346,403.188326 L308.51744,403.182022 C324.736835,403.14642 334.739146,402.963614 350.43787,402.518241 L359.22301,402.271393 C374.198341,401.870032 384.64826,401.724532 402.700085,401.718873 L403.8149,401.7187 L403.8149,431.7187 L396.379853,431.727562 C381.016985,431.767174 371.186137,431.94473 356.316585,432.36259 L347.51345,432.611105 C332.348136,433.022962 321.955695,433.176589 304.208597,433.188005 L298.639845,433.185137 C279.61522,433.143375 268.905349,432.728416 251.179146,431.623168 L245.302302,431.260673 C230.66892,430.384706 220.821609,430.042145 204.49745,429.993798 L189.668619,429.975236 C176.067886,429.939366 166.522613,429.822063 152.97432,429.572036 L139.654187,429.326789 C127.712308,429.12361 118.425737,429.035138 104.701509,429.01586 L98.3689,429.0117 Z" id="Stroke-11" fill="#b2d01e" fill-rule="nonzero"/><path d="M381.450416,491.64593 L381.918984,521.64227 L378.776335,521.69595 C361.782694,522.012881 352.275173,522.653887 336.629599,524.233365 L333.734206,524.528275 C315.772709,526.355395 305.266933,527.04766 284.934288,527.365266 L256.248601,527.790137 L211.624827,528.369881 L180.571226,528.833218 C167.769325,529.009252 158.891293,529.052494 147.450141,529.020098 L130.713656,528.952742 C120.279163,528.92305 112.036591,528.956954 100.88917,529.098957 L90.8179933,529.24327 L90.3494067,499.24693 L96.664259,499.152945 C111.999884,498.937621 121.647271,498.908822 136.254592,498.97291 L147.504592,499.020137 C159.098424,499.053082 167.990202,499.00742 181.1692,498.822003 L217.590062,498.28499 L259.025633,497.749016 C266.214433,497.648846 273.62112,497.538173 283.372211,497.386009 L287.608169,497.315249 C303.582696,497.01733 312.942262,496.43305 327.003015,495.052105 L335.526387,494.193944 C351.475175,492.612394 361.823454,491.971004 380.351022,491.66363 L381.450416,491.64593 Z" id="Stroke-13" fill="#b2d01e" fill-rule="nonzero"/><path d="M71.0739,611.4648 L71.0739,581.4648 L74.3902839,581.469463 C92.7151367,581.522737 103.351306,582.03988 119.92292,583.395953 L125.828205,583.886176 C141.659332,585.181998 151.565899,585.663012 169.011384,585.713314 L173.342063,585.717541 L179.703305,585.704192 C193.813677,585.648481 203.198416,585.414934 216.300579,584.880024 L227.046881,584.424494 C242.685594,583.776944 253.132862,583.536393 271.197731,583.518847 L281.796278,583.509306 C294.240848,583.481791 303.087566,583.384515 314.259254,583.175569 L333.186201,582.795671 C345.980477,582.556514 355.804649,582.461374 371.252574,582.449982 L374.5709,582.4488 L374.5709,612.4488 L365.202423,612.459612 C350.039591,612.498221 340.142237,612.645236 324.303827,612.979952 L317.132076,613.126165 C302.849032,613.404299 292.659677,613.50912 275.634231,613.517278 L271.210088,613.518844 C253.616255,613.536001 243.546095,613.767122 228.310659,614.397855 L218.592977,614.811092 C203.892377,615.419798 193.778908,615.668875 177.613395,615.711147 L171.111675,615.717288 L167.792529,615.709234 C150.890759,615.641095 140.510478,615.157713 125.396109,613.949232 L115.609436,613.144812 C101.153455,611.987435 91.4565606,611.536447 75.3362058,611.472824 L71.0739,611.4648 Z" id="Stroke-15" fill="#b2d01e" fill-rule="nonzero"/><path d="M358.145298,672.651027 L370.6712,672.6514 L370.6712,702.6514 L281.153751,702.630993 L259.054285,702.634499 C241.59767,702.657163 231.091064,702.776995 213.650527,703.072744 L204.876906,703.215064 C192.31087,703.407206 182.65716,703.493149 168.595444,703.51413 L154.368513,703.525821 C137.579169,703.560767 127.259339,703.743144 111.028954,704.188932 L103.070651,704.406457 C88.3368491,704.794236 77.9941947,704.953173 61.5825922,704.980153 L56.1262,704.9844 L56.1262,674.9844 L62.6353107,674.978173 C78.1168775,674.946499 88.0938912,674.790016 102.230605,674.418186 L114.962374,674.072893 C129.204239,673.702857 139.452977,673.550052 155.514958,673.523647 L171.67631,673.508248 C186.86414,673.473015 197.052377,673.349895 213.141873,673.077056 L222.391523,672.927487 C234.961148,672.736873 244.676663,672.653228 258.993125,672.634558 L358.145298,672.651027 Z" id="Stroke-17" fill="#b2d01e" fill-rule="nonzero"/><path d="M551.674,98.7764 C551.674,98.7764 553.649,65.6784 553.883,56.8264 C554.548,31.6864 566.53,29.8584 569.931,51.7344 C573.733,76.1934 576.116,97.3554 576.116,97.3554 C576.116,97.3554 563.256,113.8924 551.674,98.7764" id="Fill-19" fill="#8ba609"/><path d="M628.2692,472.374 C626.5632,441.724 615.5962,282.095 615.5962,282.095 L609.0162,188.268 L524.0442,190.38 C524.0442,190.38 535.4832,402.124 545.6022,578.822 L638.0192,569.654 C634.1662,535.578 629.2742,490.425 628.2692,472.374" id="Fill-21" fill="#b2d01e"/><path d="M588.6716,103.0449 C588.6716,103.0449 587.2046,85.6669 570.5106,85.6669 C556.8636,85.6669 545.0436,83.4739 539.3166,106.6259 C534.2886,126.9489 524.0446,190.3799 524.0446,190.3799 L566.5566,189.3229 L609.0166,188.2679 L588.6716,103.0449 Z" id="Fill-23" fill="#dbf934"/><g id="Group-27" transform="translate(545.000000, 569.506000)"><mask id="planningpen-and-paper-mask-2" fill="#ffffff"><use xlink:href="#planningpen-and-paper-path-1" fill="#ffffff"/></mask><g id="Clip-26"/><path d="M53.4557,264.911 C53.4557,264.911 107.0717,267.835 107.7217,240.215 L97.8917,42.325 C97.8917,42.325 95.7087,23.933 93.0187,0.148 L0.6017,9.316 C7.5377,130.424 13.8517,235.068 15.4377,243.79 C19.3367,265.235 53.4557,264.911 53.4557,264.911" id="Fill-25" fill="#8ba609" mask="url(#planningpen-and-paper-mask-2)"/></g><path d="M616.3278,508.8242 C616.3278,508.8242 622.5018,623.2042 623.1518,638.1512 C623.8018,653.0982 630.3008,784.7002 630.3008,784.7002 C630.3008,784.7002 629.8128,794.9362 638.4238,795.4242 C647.0348,795.9112 655.3208,795.4242 655.3208,795.4242 C655.3208,795.4242 664.7448,795.5862 665.0688,780.9642 C665.3938,766.3412 659.8698,671.6202 659.8698,649.8492 C659.8698,628.0782 650.7718,514.9982 650.9338,514.5112 C651.0968,514.0232 649.3088,494.5262 637.2858,495.1772 C625.2638,495.8262 625.2638,496.3132 625.2638,496.3132 C625.2638,496.3132 615.7158,497.4582 616.3278,508.8242" id="Fill-28" fill="#dbf934"/><g id="Group-32" transform="translate(176.000000, 0.506000)"><mask id="planningpen-and-paper-mask-4" fill="#ffffff"><use xlink:href="#planningpen-and-paper-path-3" fill="#ffffff"/></mask><g id="Clip-31"/><path d="M81.5876,50.2098 C81.3816,26.6578 120.9326,25.5148 120.905614,50.5458 C120.8786,75.7928 81.7966,74.1058 81.5876,50.2098 M188.9816,106.7498 C188.4936,92.6148 166.5606,94.5638 166.5606,94.5638 L147.1456,94.1428 C142.1276,94.0338 139.9896,87.7738 143.8546,84.5718 C151.7856,77.9988 157.6926,67.7898 158.7616,53.6218 C160.7116,27.7888 142.7256,0.4938 103.1966,0.4938 C70.0526,0.4938 50.2096,14.8048 44.8686,42.1778 C40.1366,66.4318 49.5236,79.8228 57.6366,86.6038 C60.3226,88.8488 58.8616,93.2308 55.3696,93.4768 C45.4306,94.1768 31.1776,95.1828 19.3606,96.0268 C-1.1104,97.4888 0.3246,112.1108 0.3246,112.1108 L0.3246,179.5668 C0.3246,186.9908 6.4556,192.9488 13.8766,192.7378 L176.2596,188.1238 C183.3596,187.9218 189.0216,182.1368 189.0616,175.0338 C189.1756,154.9138 189.3346,116.9908 188.9816,106.7498" id="Fill-30" fill="#a399b7" mask="url(#planningpen-and-paper-mask-4)"/></g></g></g></g><g transform="translate(-28.000000, 174.000000) scale(1 1)" id="Master/Character/Standing"><g id="Master/Character/Standing" stroke="none" stroke-width="1" fill="none" fill-rule="evenodd"><g id="Standing/Lower Body" transform="translate(14.000000, 442.000000) scale(1 1)"><g id="Standing/Lower Body/Walking" stroke="none" stroke-width="1" fill="none" fill-rule="evenodd"><g id="Group-332" transform="translate(252.000000, 155.000000) scale(-1, 1) translate(-252.000000, -155.000000) translate(142.000000, 0.000000)"><g id="Group-74" transform="translate(0.000000, 0.142000)"><path d="M189.6183,170.0922 L132.1503,159.5222 C128.7343,158.8932 126.1853,156.0182 125.9723,152.5512 L118.1893,26.2792 C118.1893,12.2392 106.8073,0.8582 92.7673,0.8582 L44.6893,0.8582 C30.6493,0.8582 19.2673,12.2392 19.2673,26.2792 L2.6423,138.3352 C2.6423,138.3352 -9.6607,185.5522 25.9173,199.8502 C61.4963,214.1482 175.5473,242.0782 175.5473,242.0782 L192.1163,173.9452 C192.5443,172.1812 191.4033,170.4202 189.6183,170.0922" id="Fill-34" fill="#6b4e67"/><path d="M63.6579,202.5101 L63.6579,279.1541 L133.3189,278.4891 C133.3189,278.4891 135.2309,278.7381 135.1479,275.4951 C135.0639,272.2531 130.4919,202.5101 130.4919,202.5101 L63.6579,202.5101 Z" id="Fill-36" fill="#6b4e67"/><path d="M175.5475,242.0785 C175.5475,242.0785 170.0615,258.7035 168.8975,276.4935 C167.7335,294.2825 189.1805,296.7765 194.1685,281.4805 C199.1555,266.1845 205.6395,241.0805 206.9695,234.4315 C208.2995,227.7805 216.1135,201.1805 217.4435,193.5315 C218.2495,188.8995 218.9705,185.6015 219.4135,183.7225 C219.6565,182.6935 219.0195,181.6665 217.9925,181.4175 L191.8405,175.0775 L175.5475,242.0785 Z" id="Fill-38" fill="#ef6d21"/><path d="M63.6579,279.1537 C63.6579,279.1537 33.7319,279.3197 26.7489,280.4837 C19.7659,281.6467 15.7759,290.1267 18.4359,298.1067 C21.0959,306.0867 29.5759,308.2487 43.2079,308.2487 L130.4919,308.2487 C132.3209,308.2487 135.1529,307.9157 135.149902,302.9277 C135.1479,297.9397 133.3189,278.4887 133.3189,278.4887 L63.6579,279.1537 Z" id="Fill-40" fill="#ef6d21"/><path d="M56.3322,266.7279 C56.0642,266.7279 55.7842,266.7589 55.4882,266.8219 C55.0662,266.9109 53.9442,267.1479 54.1072,269.0989 C54.3552,272.0759 57.4742,276.3699 62.0142,277.4229 C61.6582,274.2689 60.6242,269.2489 58.2582,267.4079 C57.6702,266.9509 57.0452,266.7279 56.3322,266.7279 M63.6582,280.6539 C63.6372,280.6539 63.6162,280.6529 63.5952,280.6519 C58.7622,280.4499 51.6762,276.0509 51.1182,269.3479 C50.8822,266.5179 52.3202,264.4249 54.8692,263.8859 C56.7952,263.4799 58.6072,263.8769 60.1022,265.0419 C64.6142,268.5559 65.1142,278.0259 65.1562,279.0939 C65.1732,279.5129 65.0142,279.9189 64.7172,280.2149 C64.4352,280.4969 64.0542,280.6539 63.6582,280.6539" id="Fill-42" fill="#000000"/><path d="M71.2819,266.4359 C70.8669,266.4359 70.4779,266.5509 70.0959,266.7839 C67.8369,268.1579 66.2359,273.1979 65.4899,277.1399 C70.1169,275.5169 73.2729,271.4169 73.5269,268.8129 C73.6709,267.3509 72.9329,266.8799 72.2749,266.6329 C71.9239,266.5019 71.5949,266.4359 71.2819,266.4359 M63.6579,280.6539 C63.2749,280.6539 62.9029,280.5069 62.6219,280.2389 C62.2809,279.9129 62.1129,279.4449 62.1689,278.9769 C62.3109,277.7769 63.7009,267.1649 68.5349,264.2219 C69.9929,263.3329 71.6499,263.1949 73.3279,263.8249 C75.5629,264.6629 76.7539,266.6369 76.5129,269.1049 C76.0699,273.6429 70.7819,279.4939 63.9029,280.6329 C63.8209,280.6469 63.7389,280.6539 63.6579,280.6539" id="Fill-44" fill="#000000"/><path d="M66.9269,294.0092 L66.9099,294.0092 C66.0819,293.9992 65.4179,293.3222 65.4269,292.4922 C65.5279,283.3532 62.6269,280.2442 62.5969,280.2142 C62.0279,279.6252 62.0269,278.6812 62.6059,278.1022 C63.1839,277.5242 64.1109,277.5062 64.6999,278.0752 C65.0939,278.4552 68.5419,282.0952 68.4269,292.5262 C68.4179,293.3492 67.7479,294.0092 66.9269,294.0092" id="Fill-46" fill="#000000"/><path d="M166.1003,227.1391 C165.8053,227.1391 165.5043,227.1961 165.1913,227.3081 C163.4213,227.9431 163.2713,228.9511 163.3403,229.7591 C163.6103,232.9531 168.4603,238.0321 173.5553,239.9671 C172.5243,235.7691 170.3653,229.2261 167.3933,227.5121 C166.9603,227.2631 166.5373,227.1391 166.1003,227.1391 M175.5473,243.5781 C175.4603,243.5781 175.3723,243.5711 175.2863,243.5551 C168.4823,242.3491 160.8053,235.3881 160.3503,230.0121 C160.1343,227.4481 161.5293,225.4331 164.1803,224.4851 C165.7833,223.9111 167.4123,224.0601 168.8933,224.9141 C174.3783,228.0781 176.7683,240.4131 177.0233,241.8091 C177.1113,242.2921 176.9573,242.7881 176.6113,243.1361 C176.3273,243.4211 175.9433,243.5781 175.5473,243.5781" id="Fill-48" fill="#000000"/><path d="M172.6232,243.9838 C167.9552,244.7718 162.2722,246.4218 160.8902,248.7998 C160.5082,249.4578 160.5022,250.1178 160.8712,250.9408 C161.1442,251.5488 161.4772,251.7508 162.1082,251.7238 C165.0282,251.5848 170.1122,246.9228 172.6232,243.9838 M161.9962,254.7228 C160.2462,254.7228 158.8872,253.8448 158.1352,252.1698 C157.3732,250.4698 157.4282,248.7838 158.2972,247.2908 C161.3362,242.0688 173.9752,240.7218 175.4052,240.5858 C176.1882,240.5038 176.8582,241.0228 177.0152,241.7678 C177.5562,244.3328 168.8412,252.8098 164.0632,254.3668 C163.3292,254.6058 162.6372,254.7228 161.9962,254.7228" id="Fill-50" fill="#000000"/><polygon id="Fill-52" fill="#fe883e" points="180.8 220.4789 206.969 234.4309 205.198 242.0789 179.092 227.5009"/><path d="M183.6212,208.8773 C183.6212,208.8773 207.0252,219.4353 210.2392,221.6123 L208.4082,228.4883 C208.4082,228.4883 194.6112,221.6853 190.7322,219.1353 C186.8522,216.5863 182.2362,214.5733 182.2362,214.5733 L183.6212,208.8773 Z" id="Fill-54" fill="#fe883e"/><path d="M185.9836,199.1615 L212.5666,213.0245 L214.0276,207.5845 C214.0276,207.5845 192.2066,194.8465 187.3686,193.4685 L185.9836,199.1615 Z" id="Fill-56" fill="#fe883e"/><path d="M176.8776,249.4486 C176.9366,251.1736 179.6116,251.3876 179.5926,249.5586 C179.5716,247.4756 176.8106,247.4746 176.8776,249.4486" id="Fill-58" fill="#070306"/><path d="M173.8908,261.7445 C173.9498,263.4685 176.6248,263.6835 176.6058,261.8535 C176.5848,259.7715 173.8238,259.7695 173.8908,261.7445" id="Fill-60" fill="#070306"/><path d="M43.089,283.9291 C43.148,285.6541 45.823,285.8681 45.804,284.0391 C45.783,281.9561 43.022,281.9551 43.089,283.9291" id="Fill-62" fill="#070306"/><path d="M54.9367,283.9291 C54.9957,285.6541 57.6707,285.8681 57.6517,284.0391 C57.6307,281.9561 54.8697,281.9551 54.9367,283.9291" id="Fill-64" fill="#070306"/><path d="M77.5119,279.0209 C77.5119,279.0209 73.7999,297.1649 73.3559,308.2489 L79.1749,308.2489 C79.1749,308.2489 84.3269,280.0339 84.3279,278.9569 L77.5119,279.0209 Z" id="Fill-66" fill="#fe883e"/><path d="M90.4806,278.8969 C90.4806,278.8969 86.7676,300.6559 86.6006,308.2489 L92.9736,308.2489 C92.9736,308.2489 96.1326,282.2439 97.1306,278.8969 L90.4806,278.8969 Z" id="Fill-68" fill="#fe883e"/><path d="M102.839,278.7797 C102.839,278.7797 101.564,287.6877 100.733,291.7887 C99.901,295.8897 99.404,308.2487 99.404,308.2487 L105.665,308.2487 C105.665,308.2487 107.043,295.7787 107.656,291.7337 C108.27,287.6877 109.544,278.7797 109.544,278.7797 L102.839,278.7797 Z" id="Fill-70" fill="#fe883e"/><path d="M126.3278,160.0043 C126.2318,160.0043 126.1348,159.9943 126.0368,159.9763 C125.1298,159.7973 124.6428,159.4633 124.3218,159.2413 C124.1008,159.0903 124.0268,159.0383 123.7288,158.9813 C123.3848,158.9133 123.2638,158.9323 122.9978,158.9723 C122.6158,159.0313 122.0928,159.1103 121.2338,158.9423 C120.4268,158.7843 120.0088,158.5723 119.6728,158.4013 C119.4348,158.2803 119.2898,158.2073 118.8938,158.1303 C118.2848,158.0103 117.9808,157.9473 117.6758,157.8853 C117.3798,157.8233 117.0838,157.7623 116.4898,157.6463 L114.0868,157.1653 C113.9378,157.1353 113.9378,157.1363 113.6818,157.2453 C113.2678,157.4213 112.5798,157.7163 111.5238,157.5113 C110.9568,157.4003 110.6728,157.3583 110.3868,157.3163 C110.0668,157.2703 109.7458,157.2233 109.1118,157.0993 C108.1788,156.9153 107.6878,156.5533 107.3628,156.3143 C107.1468,156.1533 107.0878,156.1103 106.8178,156.0583 C106.3798,155.9723 106.1848,155.9743 105.9148,155.9833 C105.5618,155.9913 105.1248,156.0023 104.3618,155.8533 C103.5788,155.6993 103.1698,155.5063 102.8408,155.3523 C102.5978,155.2373 102.4368,155.1623 102.0178,155.0803 C101.4688,154.9723 101.1908,154.9383 100.9118,154.9033 C100.5808,154.8623 100.2498,154.8213 99.5968,154.6933 C98.8568,154.5483 98.4628,154.3903 98.1468,154.2623 C97.8878,154.1583 97.7008,154.0823 97.2408,153.9923 C96.6218,153.8713 96.3158,153.8053 96.0088,153.7383 C95.7178,153.6753 95.4258,153.6113 94.8418,153.4973 C94.5698,153.4433 94.4928,153.4623 94.2368,153.5263 C93.8478,153.6243 93.2588,153.7703 92.3308,153.5883 C91.4848,153.4223 91.0358,153.1623 90.7078,152.9723 C90.4798,152.8403 90.3648,152.7743 90.0098,152.7043 C89.3198,152.5683 88.9618,152.4523 88.6478,152.3503 C88.3788,152.2623 88.1478,152.1873 87.6368,152.0873 C86.9298,151.9473 86.5658,151.8193 86.2448,151.7053 C85.9768,151.6103 85.7648,151.5363 85.2728,151.4403 C84.8588,151.3583 84.6828,151.3683 84.4148,151.3823 C84.0478,151.4023 83.5958,151.4273 82.8128,151.2743 C82.3488,151.1833 82.1448,151.1813 81.8638,151.1783 C81.5248,151.1743 81.1028,151.1703 80.3678,151.0263 C79.6718,150.8903 79.3118,150.7693 78.9948,150.6613 C78.7318,150.5723 78.5038,150.4963 78.0008,150.3983 C77.4738,150.2943 77.2038,150.2683 76.9358,150.2423 C76.5938,150.2093 76.2528,150.1763 75.5828,150.0443 C74.6808,149.8673 73.9658,149.4223 73.3908,149.0653 C73.2098,148.9513 73.0288,148.8373 72.8428,148.7363 C71.9798,148.2653 71.2568,147.7023 70.4968,146.9113 C70.3488,146.7563 70.1928,146.6093 70.0388,146.4643 C69.5228,145.9743 68.9368,145.4193 68.5358,144.6093 C68.0928,143.7143 67.9558,142.7873 67.8348,141.9703 L67.7898,141.6673 C67.6398,140.6933 67.7778,139.8333 67.9108,139.0013 L67.9588,138.6933 C68.0288,138.2413 68.0218,138.0463 68.0128,137.7753 C68.0008,137.4413 67.9868,137.0253 68.0998,136.2953 C68.1468,135.9943 68.1238,135.9003 68.0658,135.6513 C67.9748,135.2663 67.8498,134.7383 67.9868,133.8583 C68.1488,132.8093 68.6608,132.2663 68.9658,131.9423 C69.1438,131.7543 69.1438,131.7543 69.1628,131.6263 C69.1808,131.5113 69.1808,131.5113 69.0678,131.2853 C68.8638,130.8803 68.5228,130.2013 68.6878,129.1393 C68.7798,128.5463 68.8298,128.2473 68.8798,127.9523 C68.9288,127.6593 68.9778,127.3703 69.0688,126.7843 C69.1898,126.0013 69.3698,125.5893 69.5158,125.2573 C69.6208,125.0173 69.6838,124.8723 69.7458,124.4773 C69.8248,123.9683 69.8368,123.7093 69.8488,123.4503 C69.8638,123.1333 69.8818,122.7733 69.9838,122.1073 C70.1158,121.2583 70.3638,120.8033 70.5458,120.4723 C70.6678,120.2483 70.7238,120.1463 70.7738,119.8163 C70.8628,119.2463 70.8988,118.9603 70.9358,118.6743 C70.9748,118.3683 71.0148,118.0643 71.1088,117.4553 C71.2138,116.7783 71.3128,116.4263 71.3998,116.1133 C71.4738,115.8513 71.5378,115.6233 71.6148,115.1243 C71.6548,114.8673 71.6358,114.8023 71.5628,114.5593 C71.4498,114.1793 71.2778,113.6053 71.4208,112.6833 C71.5358,111.9413 71.6838,111.5453 71.8038,111.2273 C71.8948,110.9803 71.9628,110.8013 72.0298,110.3643 C72.0908,109.9713 72.0738,109.8143 72.0468,109.5533 C72.0088,109.1923 71.9608,108.7453 72.0818,107.9623 C72.2108,107.1313 72.4428,106.6833 72.6128,106.3553 C72.7298,106.1293 72.7888,106.0163 72.8428,105.6713 C72.8778,105.4413 72.8628,105.3983 72.7808,105.1503 C72.6508,104.7603 72.4558,104.1703 72.6018,103.2233 C72.7328,102.3753 72.9818,101.9213 73.1638,101.5893 C73.2858,101.3663 73.3418,101.2653 73.3918,100.9383 C73.5178,100.1213 73.7368,99.6783 73.8968,99.3553 C74.0098,99.1283 74.0708,99.0033 74.1268,98.6443 C74.1468,98.5133 74.1468,98.5133 74.0358,98.2793 C73.8468,97.8813 73.5278,97.2133 73.6888,96.1683 C73.7828,95.5643 73.8358,95.2633 73.8888,94.9623 C73.9388,94.6773 73.9888,94.3913 74.0778,93.8173 C74.1798,93.1623 74.2608,92.8403 74.3418,92.5173 C74.4048,92.2613 74.4698,92.0053 74.5498,91.4863 C74.6708,90.7043 74.8508,90.2923 74.9968,89.9613 C75.1018,89.7233 75.1648,89.5793 75.2258,89.1863 C75.3378,88.4583 75.4778,88.0673 75.5898,87.7533 C75.6808,87.5013 75.7448,87.3183 75.8148,86.8723 C75.8528,86.6243 75.8348,86.5663 75.7598,86.3213 C75.6428,85.9393 75.4638,85.3593 75.6078,84.4313 C75.6938,83.8763 75.7228,83.5993 75.7518,83.3193 C75.7848,83.0063 75.8178,82.6913 75.9128,82.0693 C76.0218,81.3683 76.1358,81.0063 76.2368,80.6863 C76.3188,80.4253 76.3828,80.2203 76.4568,79.7433 C76.5258,79.3043 76.5168,79.1123 76.5048,78.8473 C76.4898,78.5093 76.4708,78.0903 76.5848,77.3543 C76.7188,76.4873 76.9868,76.0263 77.1818,75.6903 C77.3078,75.4723 77.3608,75.3813 77.4088,75.0723 C77.5258,74.3163 77.6858,73.9133 77.8158,73.5903 C77.9128,73.3453 77.9788,73.1823 78.0428,72.7633 C78.1058,72.3603 78.0898,72.2003 78.0648,71.9373 C78.0308,71.5813 77.9878,71.1393 78.1068,70.3643 C78.1788,69.9003 78.1758,69.6893 78.1728,69.4213 C78.1678,69.0963 78.1628,68.6913 78.2738,67.9803 C78.3988,67.1713 78.6108,66.7313 78.7658,66.4103 C78.8768,66.1793 78.9388,66.0513 78.9948,65.6843 C79.0478,65.3443 79.0258,65.2193 78.9808,64.9723 C78.9148,64.6063 78.8258,64.1063 78.9538,63.2703 C79.0908,62.3833 79.3908,61.8973 79.5888,61.5753 C79.7228,61.3573 79.7678,61.2833 79.8128,60.9953 C79.9388,60.1763 80.6978,59.6123 81.5238,59.7423 C82.3428,59.8683 82.9038,60.6353 82.7768,61.4533 C82.6398,62.3403 82.3408,62.8263 82.1418,63.1483 C82.0088,63.3663 81.9638,63.4403 81.9188,63.7283 C81.8658,64.0683 81.8888,64.1923 81.9328,64.4413 C81.9988,64.8063 82.0888,65.3073 81.9598,66.1423 C81.8348,66.9503 81.6228,67.3913 81.4678,67.7123 C81.3558,67.9433 81.2948,68.0703 81.2378,68.4393 C81.1658,68.9033 81.1688,69.1143 81.1718,69.3823 C81.1768,69.7073 81.1818,70.1113 81.0708,70.8233 C81.0098,71.2243 81.0238,71.3833 81.0508,71.6483 C81.0848,72.0033 81.1278,72.4463 81.0078,73.2223 C80.8898,73.9783 80.7298,74.3803 80.5998,74.7033 C80.5028,74.9493 80.4368,75.1113 80.3728,75.5313 C80.2378,76.3993 79.9718,76.8583 79.7768,77.1943 C79.6508,77.4123 79.5978,77.5033 79.5498,77.8133 C79.4818,78.2553 79.4898,78.4463 79.5018,78.7123 C79.5168,79.0493 79.5358,79.4683 79.4218,80.2023 C79.3138,80.9033 79.1998,81.2663 79.0988,81.5863 C79.0168,81.8473 78.9528,82.0523 78.8778,82.5273 C78.7928,83.0763 78.7648,83.3543 78.7358,83.6303 C78.7028,83.9463 78.6698,84.2623 78.5728,84.8903 C78.5348,85.1363 78.5518,85.1943 78.6268,85.4393 C78.7448,85.8223 78.9238,86.4013 78.7798,87.3313 C78.6668,88.0583 78.5278,88.4483 78.4148,88.7633 C78.3248,89.0163 78.2598,89.1983 78.1908,89.6453 C78.0698,90.4263 77.8888,90.8383 77.7428,91.1693 C77.6378,91.4083 77.5748,91.5523 77.5138,91.9443 C77.4118,92.6003 77.3308,92.9233 77.2498,93.2453 C77.1868,93.5013 77.1218,93.7573 77.0418,94.2763 C76.9488,94.8803 76.8958,95.1813 76.8428,95.4823 C76.7918,95.7683 76.7428,96.0533 76.6538,96.6273 C76.6328,96.7573 76.6328,96.7573 76.7448,96.9903 C76.9338,97.3903 77.2518,98.0583 77.0908,99.1023 C76.9648,99.9183 76.7458,100.3613 76.5858,100.6853 C76.4738,100.9113 76.4118,101.0363 76.3568,101.3963 C76.2258,102.2443 75.9768,102.6983 75.7938,103.0303 C75.6728,103.2533 75.6178,103.3553 75.5668,103.6813 C75.5308,103.9123 75.5448,103.9573 75.6268,104.2043 C75.7568,104.5943 75.9528,105.1833 75.8068,106.1293 C75.6778,106.9613 75.4458,107.4093 75.2758,107.7363 C75.1588,107.9623 75.0998,108.0753 75.0458,108.4213 C74.9848,108.8163 75.0008,108.9753 75.0298,109.2353 C75.0678,109.5953 75.1148,110.0423 74.9948,110.8233 C74.8798,111.5663 74.7308,111.9613 74.6118,112.2793 C74.5198,112.5263 74.4528,112.7043 74.3858,113.1413 C74.3468,113.3953 74.3658,113.4603 74.4378,113.7033 C74.5518,114.0843 74.7228,114.6593 74.5798,115.5833 C74.4748,116.2603 74.3758,116.6123 74.2888,116.9253 C74.2148,117.1883 74.1508,117.4153 74.0738,117.9143 C73.9848,118.4853 73.9488,118.7723 73.9118,119.0583 C73.8728,119.3623 73.8328,119.6673 73.7388,120.2753 C73.6078,121.1233 73.3588,121.5783 73.1778,121.9103 C73.0558,122.1343 72.9998,122.2353 72.9488,122.5663 C72.8698,123.0743 72.8578,123.3333 72.8458,123.5923 C72.8308,123.9093 72.8128,124.2693 72.7108,124.9353 C72.5898,125.7183 72.4078,126.1313 72.2638,126.4623 C72.1578,126.7023 72.0948,126.8473 72.0328,127.2423 C71.9388,127.8493 71.8888,128.1493 71.8378,128.4513 C71.7898,128.7363 71.7408,129.0253 71.6518,129.5983 C71.6348,129.7133 71.6348,129.7133 71.7478,129.9383 C71.9508,130.3433 72.2918,131.0213 72.1278,132.0843 C71.9648,133.1353 71.4528,133.6773 71.1468,134.0013 C70.9708,134.1893 70.9708,134.1893 70.9508,134.3173 C70.9038,134.6203 70.9258,134.7133 70.9848,134.9623 C71.0758,135.3473 71.1998,135.8743 71.0638,136.7533 C70.9948,137.2043 71.0018,137.4003 71.0108,137.6713 C71.0218,138.0053 71.0368,138.4213 70.9238,139.1503 L70.8728,139.4753 C70.7628,140.1603 70.6768,140.7023 70.7548,141.2123 L70.8028,141.5323 C70.9038,142.2173 70.9908,142.8083 71.2238,143.2793 C71.3878,143.6093 71.7188,143.9233 72.1018,144.2863 C72.2908,144.4653 72.4798,144.6463 72.6618,144.8353 C73.2068,145.4013 73.6898,145.7813 74.2798,146.1033 C74.5148,146.2323 74.7458,146.3743 74.9768,146.5183 C75.4168,146.7923 75.7978,147.0293 76.1608,147.1003 C76.6878,147.2033 76.9568,147.2303 77.2258,147.2563 C77.5678,147.2893 77.9088,147.3223 78.5778,147.4533 C79.2758,147.5903 79.6348,147.7123 79.9528,147.8183 C80.2248,147.9103 80.4418,147.9833 80.9438,148.0823 C81.4098,148.1733 81.6128,148.1753 81.8938,148.1783 C82.2328,148.1823 82.6538,148.1863 83.3898,148.3303 C83.8068,148.4123 83.9828,148.4013 84.2498,148.3883 C84.6158,148.3663 85.0658,148.3423 85.8508,148.4963 C86.5578,148.6353 86.9218,148.7643 87.2438,148.8773 C87.5108,148.9723 87.7228,149.0473 88.2148,149.1433 C88.9048,149.2783 89.2618,149.3953 89.5768,149.4973 C89.8448,149.5853 90.0768,149.6603 90.5868,149.7603 C91.4328,149.9263 91.8828,150.1873 92.2108,150.3763 C92.4388,150.5093 92.5548,150.5753 92.9078,150.6453 C93.1808,150.6973 93.2578,150.6793 93.5138,150.6153 C93.9028,150.5193 94.4928,150.3733 95.4198,150.5543 C96.0318,150.6743 96.3378,150.7403 96.6428,150.8073 C96.9368,150.8703 97.2288,150.9343 97.8178,151.0483 C98.5578,151.1933 98.9518,151.3523 99.2678,151.4803 C99.5268,151.5843 99.7128,151.6593 100.1738,151.7493 C100.7238,151.8583 101.0018,151.8923 101.2808,151.9263 C101.6108,151.9673 101.9418,152.0083 102.5958,152.1363 C103.3788,152.2893 103.7888,152.4833 104.1178,152.6373 C104.3598,152.7513 104.5208,152.8263 104.9388,152.9093 C105.3788,152.9953 105.5758,152.9903 105.8418,152.9833 C106.1948,152.9743 106.6328,152.9643 107.3958,153.1133 C108.3278,153.2973 108.8188,153.6593 109.1438,153.9003 C109.3598,154.0593 109.4178,154.1023 109.6888,154.1543 C110.2508,154.2653 110.5358,154.3073 110.8208,154.3483 C111.1418,154.3963 111.4628,154.4423 112.0998,154.5673 C112.2498,154.5963 112.2478,154.5953 112.5038,154.4863 C112.9178,154.3103 113.6108,154.0163 114.6638,154.2213 L117.0668,154.7023 C117.6748,154.8213 117.9788,154.8843 118.2838,154.9473 C118.5788,155.0083 118.8758,155.0693 119.4698,155.1863 C120.2768,155.3443 120.6948,155.5563 121.0308,155.7273 C121.2688,155.8483 121.4128,155.9213 121.8098,155.9983 C122.1558,156.0673 122.2768,156.0483 122.5418,156.0073 C122.9238,155.9483 123.4448,155.8683 124.3068,156.0363 C125.2148,156.2153 125.7008,156.5493 126.0218,156.7703 C126.2428,156.9223 126.3168,156.9733 126.6148,157.0313 C127.4278,157.1913 127.9568,157.9793 127.7968,158.7923 C127.6578,159.5073 127.0298,160.0043 126.3278,160.0043" id="Fill-72" fill="#000000"/></g></g></g></g><g id="Upper Body" transform="translate(-1.000000, 0.000000) scale(1 1)"><defs><path d="M89.959,0.032 L41.63,0.032 C41.63,0.032 1.724,-1.493 1.724,44.176 L1.724,44.176 C1.724,83.335 -0.267,114.232 0.62,164.778 L0.62,164.778 L79.151,164.778 C77.99,167.178 71.285,182.551 83.309,195.594 L83.309,195.594 L141.835,195.594 C139.619,53.045 134.984,32.439 134.984,32.439 L134.984,32.439 L134.98,32.44 C130.779,1.854 99.215,-0.004 91.606,-0.004 L91.606,-0.004 C90.553,-0.004 89.959,0.032 89.959,0.032" id="upper-bodypointing-path-1"/><path d="M89.959,0.032 L41.63,0.032 C41.63,0.032 1.724,-1.493 1.724,44.176 L1.724,44.176 C1.724,83.335 -0.267,114.232 0.62,164.778 L0.62,164.778 L79.151,164.778 C77.99,167.178 71.285,182.551 83.309,195.594 L83.309,195.594 L141.835,195.594 C139.619,53.045 134.984,32.439 134.984,32.439 L134.984,32.439 L134.98,32.44 C130.779,1.854 99.215,-0.004 91.606,-0.004 L91.606,-0.004 C90.553,-0.004 89.959,0.032 89.959,0.032" id="upper-bodypointing-path-3"/><path d="M89.959,0.032 L41.63,0.032 C41.63,0.032 1.724,-1.493 1.724,44.176 L1.724,44.176 C1.724,83.335 -0.267,114.232 0.62,164.778 L0.62,164.778 L79.151,164.778 C77.99,167.178 71.285,182.551 83.309,195.594 L83.309,195.594 L141.835,195.594 C139.619,53.045 134.984,32.439 134.984,32.439 L134.984,32.439 L134.98,32.44 C130.779,1.854 99.215,-0.004 91.606,-0.004 L91.606,-0.004 C90.553,-0.004 89.959,0.032 89.959,0.032" id="upper-bodypointing-path-5"/><path d="M89.959,0.032 L41.63,0.032 C41.63,0.032 1.724,-1.493 1.724,44.176 L1.724,44.176 C1.724,83.335 -0.267,114.232 0.62,164.778 L0.62,164.778 L79.151,164.778 C77.99,167.178 71.285,182.551 83.309,195.594 L83.309,195.594 L141.835,195.594 C139.619,53.045 134.984,32.439 134.984,32.439 L134.984,32.439 L134.98,32.44 C130.779,1.854 99.215,-0.004 91.606,-0.004 L91.606,-0.004 C90.553,-0.004 89.959,0.032 89.959,0.032" id="upper-bodypointing-path-7"/><path d="M89.959,0.032 L41.63,0.032 C41.63,0.032 1.724,-1.493 1.724,44.176 L1.724,44.176 C1.724,83.335 -0.267,114.232 0.62,164.778 L0.62,164.778 L79.151,164.778 C77.99,167.178 71.285,182.551 83.309,195.594 L83.309,195.594 L141.835,195.594 C139.619,53.045 134.984,32.439 134.984,32.439 L134.984,32.439 L134.98,32.44 C130.779,1.854 99.215,-0.004 91.606,-0.004 L91.606,-0.004 C90.553,-0.004 89.959,0.032 89.959,0.032" id="upper-bodypointing-path-9"/><path d="M89.959,0.032 L41.63,0.032 C41.63,0.032 1.724,-1.493 1.724,44.176 L1.724,44.176 C1.724,83.335 -0.267,114.232 0.62,164.778 L0.62,164.778 L79.151,164.778 C77.99,167.178 71.285,182.551 83.309,195.594 L83.309,195.594 L141.835,195.594 C139.619,53.045 134.984,32.439 134.984,32.439 L134.984,32.439 L134.98,32.44 C130.779,1.854 99.215,-0.004 91.606,-0.004 L91.606,-0.004 C90.553,-0.004 89.959,0.032 89.959,0.032" id="upper-bodypointing-path-11"/><path d="M89.959,0.032 L41.63,0.032 C41.63,0.032 1.724,-1.493 1.724,44.176 L1.724,44.176 C1.724,83.335 -0.267,114.232 0.62,164.778 L0.62,164.778 L79.151,164.778 C77.99,167.178 71.285,182.551 83.309,195.594 L83.309,195.594 L141.835,195.594 C139.619,53.045 134.984,32.439 134.984,32.439 L134.984,32.439 L134.98,32.44 C130.779,1.854 99.215,-0.004 91.606,-0.004 L91.606,-0.004 C90.553,-0.004 89.959,0.032 89.959,0.032" id="upper-bodypointing-path-13"/></defs><g id="Upper Body/Pointing" stroke="none" stroke-width="1" fill="none" fill-rule="evenodd"><g id="Group-691" transform="translate(252.500000, 272.500000)"><g id="Group" transform="translate(0.000000, 0.095000)"><g id="Group-193" transform="translate(0.000000, 22.000000)"><path d="M199.8096,67.9156 L198.2366,15.7806 L227.9056,4.4276 C227.9056,4.4276 248.2146,-3.4924 250.9376,1.8716 C254.7286,9.3386 239.9456,14.1076 231.0066,17.6716 C227.7276,18.9776 235.7546,15.8536 239.1246,18.8466 C242.0666,21.4596 241.6276,27.9586 236.1816,29.2766 C236.1816,29.2766 241.6946,27.9966 243.4726,32.7016 C244.9656,36.6546 241.4526,40.7826 237.3236,41.7486 C237.3236,41.7486 241.3936,41.3246 243.5596,45.3506 C245.9206,49.7376 244.4796,55.8346 234.7776,58.3836 C234.7776,58.3836 214.8696,63.7436 199.8096,67.9156" id="Fill-185" fill="#fc9b50"/><path d="M129.9195,30.9489 L131.6895,96.8479 C152.7925,95.3159 151.8085,82.2869 151.8085,82.2869 C157.0545,89.6139 168.5645,88.3379 173.7445,83.9589 C178.8595,79.6359 178.7205,72.0159 178.7205,72.0159 C184.3675,83.4989 206.2375,78.0039 205.0735,64.5359 L198.2365,9.2109 L129.9195,30.9489 Z" id="Fill-187" fill="#dbf934"/><path d="M83.3082,203.5934 C83.3082,203.5934 101.4342,230.9924 112.6642,246.1944 C120.7682,257.1644 124.4262,257.4614 126.7982,257.1644 C129.1702,256.8684 131.4432,252.9144 128.6762,248.3674 C128.6762,248.3674 131.4432,255.7804 135.2002,256.0774 C138.9552,256.3744 141.5252,253.7054 138.0662,246.0954 C138.0662,246.0954 140.6362,252.8164 144.8862,252.4204 C149.2212,252.0174 149.8322,246.6104 147.7522,243.4264 C147.7522,243.4264 150.8162,250.6414 156.1542,248.2694 C161.6212,245.8394 156.3512,232.9484 147.7522,221.7804 C147.7522,221.7804 155.7582,226.1294 160.5032,227.0184 C165.2472,227.9074 172.4622,223.8564 162.5782,216.7394 C152.6942,209.6224 135.4962,203.5934 135.4962,203.5934 L83.3082,203.5934 Z" id="Fill-189" fill="#fc9b50"/><path d="M141.8355,203.5934 L83.3085,203.5934 C71.2845,190.5514 77.9895,175.1784 79.1515,172.7784 L0.6195,172.7784 C-0.2675,122.2324 1.7245,91.3344 1.7245,52.1764 C1.7245,6.5074 41.6295,8.0314 41.6295,8.0314 L89.9595,8.0314 C89.9595,8.0314 130.1975,5.6234 134.9805,40.4404 L134.9835,40.4394 C134.9835,40.4394 139.6185,61.0444 141.8355,203.5934" id="Fill-191" fill="#ecfe4a"/></g><g id="Group-215" transform="translate(0.000000, 30.000000)"><g id="Group-196"><mask id="upper-bodypointing-mask-2" fill="#ffffff"><use xlink:href="#upper-bodypointing-path-1" fill="#ffffff"/></mask><g id="Clip-195"/><path d="M214.0025,6.3893 C206.8445,8.8113 199.4645,8.9573 191.9815,9.1603 C183.7385,9.3833 175.4925,9.5233 167.2455,9.6033 C150.7465,9.7633 134.2455,9.6843 117.7465,9.5543 C84.4325,9.2933 51.1095,8.8213 17.7995,9.6883 C-0.9815,10.1773 -19.7485,11.1183 -38.4705,12.7103 C-44.8355,13.2523 -44.8935,23.2573 -38.4705,22.7103 C28.6535,16.9973 96.0265,20.1403 163.2875,19.6373 C172.5235,19.5683 181.7595,19.4283 190.9925,19.1873 C199.6385,18.9603 208.3885,18.8313 216.6615,16.0333 C222.7245,13.9813 220.1225,4.3193 214.0025,6.3893" id="Fill-194" fill="#dbf934" mask="url(#upper-bodypointing-mask-2)"/></g><g id="Group-199"><mask id="upper-bodypointing-mask-4" fill="#ffffff"><use xlink:href="#upper-bodypointing-path-3" fill="#ffffff"/></mask><g id="Clip-198"/><path d="M223.608,44.8258 C138.811,41.9878 53.976,40.3598 -30.868,39.9417234 C-37.304,39.9098 -37.312,49.9098 -30.868,49.9418 C53.976,50.3598 138.811,51.9878 223.608,54.8258 C230.045,55.0418 230.037,45.0418 223.608,44.8258" id="Fill-197" fill="#dbf934" mask="url(#upper-bodypointing-mask-4)"/></g><g id="Group-202"><mask id="upper-bodypointing-mask-6" fill="#ffffff"><use xlink:href="#upper-bodypointing-path-5" fill="#ffffff"/></mask><g id="Clip-201"/><path d="M235.1622,72.5230909 C164.5482,72.6451 93.9342,72.7671 23.3202,72.8891 C3.3352,72.9231 -16.6498,72.9591 -36.6348,72.9931 C-43.0688,73.0031 -43.0808,83.0031 -36.6348,82.9931075 L175.2062,82.6271 C195.1922,82.5921 215.1772,82.5571 235.1622,82.5230909 C241.5962,82.5121 241.6072,72.5121 235.1622,72.5230909" id="Fill-200" fill="#dbf934" mask="url(#upper-bodypointing-mask-6)"/></g><g id="Group-205"><mask id="upper-bodypointing-mask-8" fill="#ffffff"><use xlink:href="#upper-bodypointing-path-7" fill="#ffffff"/></mask><g id="Clip-204"/><path d="M203.6812,98.192 C126.3842,98.143 49.0862,98.094 -28.2108,98.0459988 C-34.6458,98.042 -34.6558,108.042 -28.2108,108.045999 C49.0862,108.094 126.3842,108.143 203.6812,108.192002 C210.1162,108.197 210.1262,98.197 203.6812,98.192" id="Fill-203" fill="#dbf934" mask="url(#upper-bodypointing-mask-8)"/></g><g id="Group-208"><mask id="upper-bodypointing-mask-10" fill="#ffffff"><use xlink:href="#upper-bodypointing-path-9" fill="#ffffff"/></mask><g id="Clip-207"/><path d="M240.0357,119.3531 C173.4127,122.3031 106.7377,124.0141 40.0507,124.4461 C21.1397,124.5681 2.2277,124.5851 -16.6833,124.5071 C-23.1193,124.4811 -23.1273,134.4811 -16.6833,134.5071 C50.0037,134.7821 116.6947,133.8141 183.3457,131.5691 C202.2457,130.9321 221.1427,130.1901 240.0357,129.3531 C246.4457,129.0691 246.4807,119.0671 240.0357,119.3531" id="Fill-206" fill="#dbf934" mask="url(#upper-bodypointing-mask-10)"/></g><g id="Group-211"><mask id="upper-bodypointing-mask-12" fill="#ffffff"><use xlink:href="#upper-bodypointing-path-11" fill="#ffffff"/></mask><g id="Clip-210"/><path d="M279.4898,155.6862 C197.9048,157.3182 116.2838,157.0262 34.7138,154.7662 C11.5028,154.1232 -11.7032,153.3172 -34.9032,152.3622 C-41.3382,152.0972 -41.3262,162.0982 -34.9032,162.3622 C46.6288,165.7182 128.2378,167.1532 209.8378,166.6182 C233.0568,166.4652 256.2748,166.1502 279.4898,165.6862 C285.9158,165.5572 285.9378,155.5572 279.4898,155.6862" id="Fill-209" fill="#dbf934" mask="url(#upper-bodypointing-mask-12)"/></g><g id="Group-214"><mask id="upper-bodypointing-mask-14" fill="#ffffff"><use xlink:href="#upper-bodypointing-path-13" fill="#ffffff"/></mask><g id="Clip-213"/><path d="M256.4542,189.3678 C180.3432,188.0258 104.2222,187.2968 28.0992,187.179793 C21.6642,187.1698 21.6542,197.1698 28.0992,197.179793 C104.2222,197.2968 180.3432,198.0258 256.4542,199.3678 C262.8912,199.4808 262.8922,189.4808 256.4542,189.3678" id="Fill-212" fill="#dbf934" mask="url(#upper-bodypointing-mask-14)"/></g></g><g id="Group-238" transform="translate(51.000000, 0.000000)"><path d="M78.3375,278.6305 C78.1785,278.6305 78.0175,278.6055 77.8585,278.5515 C77.0735,278.2875 76.6515,277.4365 76.9155,276.6515 C78.1395,273.0155 72.2045,263.4595 67.8715,256.4825 C66.6645,254.5375 65.5245,252.7025 64.5675,251.0585 C64.1505,250.3425 64.3945,249.4235 65.1095,249.0075 C65.8265,248.5895 66.7445,248.8335 67.1605,249.5495 C68.0955,251.1555 69.2245,252.9745 70.4205,254.8995 C75.5825,263.2115 81.4335,272.6325 79.7595,277.6085 C79.5485,278.2345 78.9635,278.6305 78.3375,278.6305" id="Fill-216" fill="#000000"/><path d="M88.48,277.1578 C88.338,277.1578 88.193,277.1368 88.05,277.0948 C87.256,276.8568 86.805,276.0208 87.043,275.2278 C88.444,270.5408 81.053,258.0968 77.501,252.1168 C76.841,251.0058 76.266,250.0368 75.828,249.2638 C75.419,248.5448 75.671,247.6288 76.392,247.2198 C77.113,246.8118 78.028,247.0628 78.437,247.7838 C78.867,248.5428 79.432,249.4928 80.081,250.5848 C85.7,260.0458 91.558,270.5988 89.917,276.0878 C89.722,276.7378 89.126,277.1578 88.48,277.1578" id="Fill-218" fill="#000000"/><path d="M97.3511,273.5309 C97.2361,273.5309 97.1201,273.5169 97.0041,273.4899 C96.1981,273.2989 95.6991,272.4909 95.8901,271.6839 C97.2251,266.0459 91.7041,256.7249 88.4041,251.1569 C87.6881,249.9479 87.0701,248.9029 86.6091,248.0519 C86.2161,247.3219 86.4871,246.4119 87.2161,246.0179 C87.9461,245.6239 88.8551,245.8959 89.2491,246.6259 C89.6811,247.4259 90.2861,248.4459 90.9851,249.6279 C94.7441,255.9709 100.4231,265.5579 98.8091,272.3759 C98.6461,273.0659 98.0301,273.5309 97.3511,273.5309" id="Fill-220" fill="#000000"/><path d="M166.1085,45.025 C165.4105,45.025 164.7865,44.536 164.6405,43.826 C164.4745,43.014 164.9975,42.221 165.8085,42.055 C165.9965,42.016 184.7445,38.092 197.9855,28.84 C198.6665,28.367 199.6015,28.532 200.0745,29.211 C200.5495,29.889 200.3835,30.825 199.7045,31.299 C185.9445,40.914 167.2025,44.832 166.4115,44.994 C166.3095,45.014 166.2085,45.025 166.1085,45.025" id="Fill-222" fill="#000000"/><path d="M167.0235,63.7936 L166.9945,63.7936 C159.0995,63.7566 154.4775,52.9786 154.2845,52.5196 C153.9635,51.7556 154.3225,50.8776 155.0855,50.5566 C155.8505,50.2336 156.7275,50.5936 157.0495,51.3556 C157.0895,51.4496 161.0945,60.7666 167.0075,60.7936 C167.9215,60.7676 168.5495,60.4566 168.9605,59.6886 C170.3165,57.1516 169.1565,50.7266 164.8665,44.3626 C164.4025,43.6756 164.5845,42.7436 165.2715,42.2806 C165.9585,41.8176 166.8915,41.9996 167.3535,42.6866 C171.9835,49.5536 173.7325,57.1266 171.6065,61.1036 C170.6775,62.8386 169.0515,63.7936 167.0235,63.7936" id="Fill-224" fill="#000000"/><path d="M170.8287,55.7643 C170.0787,55.7643 169.4297,55.2023 169.3407,54.4373 C169.2457,53.6153 169.8347,52.8693 170.6567,52.7743 C170.7707,52.7613 182.0537,51.4113 187.7767,47.9373 C188.4857,47.5083 189.4077,47.7333 189.8377,48.4413 C190.2667,49.1493 190.0417,50.0713 189.3337,50.5013 C183.0487,54.3173 171.4927,55.6973 171.0037,55.7533 C170.9447,55.7603 170.8867,55.7643 170.8287,55.7643" id="Fill-226" fill="#000000"/><path d="M174.3868,67.2262 C173.9268,67.2262 173.4608,67.2152 172.9888,67.1942 C168.1668,66.9712 166.9538,63.9232 166.9858,62.3422 C167.0028,61.5142 167.6858,60.8602 168.5158,60.8722 C169.3438,60.8892 170.0018,61.5752 169.9848,62.4032 C169.9968,62.6452 170.2008,64.0622 173.1278,64.1972 C183.1518,64.6752 190.4428,59.3142 190.5148,59.2602 C191.1788,58.7662 192.1178,58.9022 192.6138,59.5642 C193.1098,60.2262 192.9758,61.1642 192.3138,61.6612 C191.9988,61.8982 184.7718,67.2262 174.3868,67.2262" id="Fill-228" fill="#000000"/><path d="M176.4385,77.3473 C172.9465,77.3473 169.5375,76.4533 168.2815,73.3323 C166.2985,68.4043 170.1625,65.2763 172.4815,64.3113 C173.2445,63.9913 174.1245,64.3543 174.4425,65.1193 C174.7605,65.8823 174.4015,66.7573 173.6415,67.0773 C173.2355,67.2513 169.7185,68.8683 171.0645,72.2123 C172.2255,75.0963 178.4385,74.6263 183.4045,73.3493 C184.2055,73.1443 185.0245,73.6263 185.2305,74.4283 C185.4375,75.2313 184.9535,76.0483 184.1515,76.2543 C182.3295,76.7233 179.3555,77.3473 176.4385,77.3473" id="Fill-230" fill="#000000"/><path d="M18.5347,178.316 C18.4667,178.316 18.3977,178.312 18.3287,178.302 C17.5087,178.19 16.9337,177.433 17.0467,176.613 C17.1347,175.973 17.3517,175.443 17.5437,174.975 C17.6507,174.714 17.7517,174.468 17.7977,174.273 L17.8677,173.97 C18.0307,173.265 18.1837,172.6 18.4167,171.921 C18.6287,171.302 18.9037,170.769 19.1457,170.299 C19.2477,170.101 19.3487,169.905 19.4427,169.706 C19.5637,169.448 19.6577,169.184 19.7497,168.928 C19.9167,168.466 20.1057,167.944 20.4147,167.446 C20.7837,166.85 21.2587,166.443 21.6397,166.116 C21.8367,165.948 22.0227,165.789 22.1267,165.659 C22.2767,165.47 22.4107,165.218 22.5537,164.953 C22.7867,164.516 23.0517,164.021 23.4917,163.591 C24.1907,162.909 24.8037,162.374 25.3637,161.955 C25.5997,161.779 25.8237,161.644 26.0277,161.541 C25.8607,161.407 25.6717,161.241 25.4647,161.034 C25.3897,160.96 25.1357,160.812 24.9497,160.706 C24.4427,160.414 23.8117,160.05 23.2967,159.405 C22.8577,158.854 22.6817,158.237 22.5277,157.693 C22.4367,157.376 22.3517,157.076 22.2397,156.897 C22.1007,156.675 21.9397,156.464 21.7787,156.25 C21.4477,155.808 21.0717,155.307 20.7757,154.68 C20.6967,154.514 20.5217,154.291 20.3367,154.053 C19.9937,153.614 19.5667,153.067 19.3337,152.355 C19.1317,151.736 19.0767,151.108 19.0277,150.554 C19.0007,150.255 18.9767,149.953 18.9207,149.657 C18.7997,149.014 18.8297,148.399 18.8557,147.855 C18.8707,147.562 18.8877,147.263 18.8707,146.963 C18.8257,146.174 18.8437,145.402 18.9307,144.46 C18.9417,144.331 18.8757,144.038 18.8227,143.803 C18.6997,143.258 18.5457,142.582 18.7247,141.843 C18.8987,141.124 19.3017,140.578 19.6247,140.139 C19.7717,139.939 19.9387,139.713 19.9887,139.586 C20.0697,139.378 20.1257,139.103 20.1847,138.81 C20.2877,138.301 20.4047,137.724 20.7097,137.159 C20.8457,136.908 20.9507,136.635 21.0567,136.368 C21.2457,135.895 21.4587,135.359 21.7957,134.871 C22.2557,134.204 22.9237,133.848 23.4107,133.588 C23.5697,133.503 23.8097,133.376 23.8767,133.314 C24.3097,132.801 24.7587,132.39 25.1547,132.029 C25.3077,131.887 25.4557,131.753 25.5927,131.619 C25.6857,131.528 25.7747,131.446 25.8587,131.372 C25.6187,131.244 25.3667,131.071 25.1097,130.835 C24.5707,130.34 23.9387,129.737 23.3277,129.011 C22.9567,128.571 22.6937,128.082 22.4387,127.609 C22.3027,127.354 22.1627,127.092 22.0007,126.842 C21.6807,126.35 21.4747,125.838 21.2767,125.343 C21.1737,125.087 21.0697,124.824 20.9437,124.566 C20.8377,124.352 20.7127,124.141 20.5867,123.925 C20.3187,123.47 20.0157,122.954 19.7997,122.337 C19.5797,121.712 19.5867,121.092 19.5927,120.595 C19.5957,120.299 19.5987,120.021 19.5557,119.829 C19.3907,119.111 19.2677,118.368 19.1557,117.419 C19.0877,116.837 19.0957,116.288 19.1027,115.755 C19.1067,115.505 19.1107,115.251 19.1057,114.988 C19.1027,114.866 18.9507,114.53 18.8487,114.308 C18.5977,113.756 18.2857,113.07 18.3677,112.257 C18.4557,111.377 18.9307,110.702 19.2787,110.21 C19.3957,110.044 19.5737,109.792 19.6057,109.695 C19.8177,108.825 20.0867,108.013 20.4497,107.149 C20.5657,106.873 20.6517,106.595 20.7357,106.327 C20.9067,105.789 21.0987,105.178 21.4667,104.604 C21.6137,104.373 21.7427,104.087 21.8797,103.784 C22.1177,103.255 22.3877,102.656 22.8557,102.149 C23.4937,101.458 24.2967,101.188 24.8837,100.992 C25.0537,100.934 25.3087,100.848 25.3847,100.8 C25.6627,100.59 25.8857,100.44 26.0617,100.325 C25.8907,100.219 25.7027,100.089 25.4977,99.926 C25.4327,99.881 25.1847,99.787 25.0207,99.723 C24.5187,99.53 23.8307,99.264 23.2517,98.7 C22.6827,98.145 22.0907,97.503 21.5377,96.841 C21.3827,96.655 21.2067,96.471 21.0287,96.283 C20.6547,95.888 20.2307,95.44 19.8717,94.901 C19.5157,94.365 19.3457,93.791 19.1957,93.284 C19.1077,92.985 19.0247,92.704 18.9227,92.503 C18.6237,91.913 18.5337,91.325 18.4537,90.806 C18.4097,90.513 18.3677,90.237 18.2947,90.034 C18.2247,89.841 18.1017,89.611 17.9717,89.367 C17.7327,88.922 17.4367,88.369 17.2917,87.704 C17.2387,87.462 17.1517,87.22 17.0657,86.974 C16.8887,86.465 16.6887,85.888 16.6307,85.22 C16.5577,84.371 16.5367,83.508 16.5687,82.656 C16.5947,81.987 16.8197,81.426 17.0187,80.932 C17.1317,80.653 17.2387,80.388 17.2687,80.191 C17.3937,79.372 18.1617,78.81 18.9777,78.934 C19.7967,79.059 20.3597,79.825 20.2347,80.643 C20.1517,81.186 19.9657,81.647 19.8017,82.054 C19.6947,82.321 19.5727,82.623 19.5667,82.768 C19.5397,83.488 19.5577,84.247 19.6197,84.962 C19.6457,85.257 19.7687,85.614 19.8997,85.991 C20.0257,86.352 20.1447,86.71 20.2227,87.064 C20.2787,87.322 20.4347,87.613 20.6157,87.95 C20.7837,88.264 20.9737,88.62 21.1187,89.022 C21.2887,89.498 21.3587,89.952 21.4197,90.352 C21.4677,90.664 21.5157,90.985 21.5977,91.146 C21.8237,91.59 21.9557,92.038 22.0727,92.432 C22.1667,92.752 22.2637,93.081 22.3697,93.24 C22.5857,93.565 22.8877,93.882 23.2057,94.219 C23.4287,94.455 23.6457,94.685 23.8407,94.918 C24.3287,95.503 24.8487,96.067 25.3457,96.551 C25.4837,96.686 25.7977,96.807 26.1007,96.924 C26.5017,97.079 26.9577,97.254 27.3657,97.579 C27.6227,97.784 27.7947,97.862 27.9597,97.937 C29.2847,98.543 29.3077,99.531 29.1367,100.508 C28.9317,101.673 28.7737,102.138 27.8017,102.771 C27.6517,102.869 27.4517,103 27.1797,103.204 C26.7447,103.531 26.2627,103.693 25.8377,103.836 C25.5277,103.939 25.1777,104.057 25.0607,104.183 C24.9217,104.334 24.7657,104.68 24.6147,105.016 C24.4487,105.385 24.2597,105.803 23.9937,106.219 C23.8407,106.461 23.7267,106.817 23.5967,107.231 C23.4847,107.584 23.3677,107.947 23.2157,108.31 C22.9107,109.035 22.6967,109.684 22.5177,110.415 C22.3657,111.038 22.0137,111.538 21.7297,111.939 C21.5967,112.128 21.3737,112.444 21.3517,112.561 C21.3677,112.598 21.4947,112.879 21.5797,113.066 C21.8077,113.566 22.0907,114.188 22.1047,114.929 C22.1107,115.226 22.1067,115.515 22.1027,115.799 C22.0957,116.273 22.0897,116.682 22.1357,117.067 C22.2347,117.905 22.3407,118.551 22.4797,119.162 C22.6027,119.7 22.5967,120.215 22.5927,120.629 C22.5897,120.891 22.5857,121.217 22.6297,121.343 C22.7497,121.685 22.9557,122.036 23.1737,122.407 C23.3387,122.688 23.4997,122.965 23.6367,123.245 C23.7967,123.57 23.9307,123.902 24.0607,124.227 C24.2127,124.604 24.3557,124.961 24.5157,125.207 C24.7237,125.527 24.9057,125.861 25.0807,126.187 C25.2717,126.541 25.4517,126.876 25.6227,127.079 C26.1247,127.675 26.6707,128.195 27.1387,128.626 C27.2667,128.743 27.2787,128.744 27.4757,128.766 C28.9807,128.936 29.3377,130.01 29.3717,130.882 C29.4187,132.076 29.1407,132.684 28.2717,133.29 C28.1067,133.405 27.9347,133.524 27.6907,133.763 C27.5307,133.92 27.3587,134.078 27.1797,134.242 C26.8337,134.558 26.4757,134.885 26.1517,135.269 C25.7537,135.74 25.2367,136.014 24.8217,136.236 C24.6267,136.339 24.3327,136.497 24.2607,136.581 C24.1207,136.784 23.9867,137.122 23.8437,137.478 C23.7077,137.819 23.5547,138.206 23.3497,138.584 C23.2567,138.756 23.1927,139.072 23.1247,139.406 C23.0467,139.793 22.9577,140.23 22.7827,140.678 C22.5887,141.174 22.2967,141.57 22.0397,141.919 C21.8767,142.14 21.6727,142.417 21.6407,142.55 C21.6337,142.634 21.7027,142.939 21.7487,143.14 C21.8487,143.583 21.9727,144.133 21.9177,144.735 C21.8457,145.522 21.8287,146.157 21.8657,146.791 C21.8887,147.199 21.8717,147.603 21.8527,148.002 C21.8327,148.416 21.8137,148.806 21.8687,149.099 C21.9427,149.492 21.9807,149.894 22.0157,150.292 C22.0537,150.723 22.0897,151.13 22.1847,151.421 C22.2547,151.634 22.4717,151.913 22.7017,152.207 C22.9667,152.546 23.2657,152.93 23.4877,153.397 C23.6537,153.75 23.9087,154.089 24.1787,154.45 C24.3907,154.732 24.5977,155.01 24.7807,155.301 C25.1197,155.842 25.2827,156.414 25.4127,156.873 C25.4777,157.1 25.5757,157.443 25.6427,157.535 C25.8027,157.735 26.1157,157.915 26.4467,158.105 C26.8147,158.318 27.2327,158.558 27.5877,158.915 C27.8597,159.187 28.0497,159.315 28.2327,159.438 C29.1307,160.046 29.4267,160.662 29.4037,161.879 C29.3807,163.13 28.8417,163.84 27.7077,164.111 C27.5147,164.158 27.3877,164.188 27.1587,164.359 C26.7047,164.698 26.1907,165.149 25.5857,165.739 C25.4787,165.844 25.3367,166.11 25.1997,166.367 C25.0087,166.723 24.7927,167.128 24.4697,167.531 C24.1887,167.882 23.8717,168.154 23.5917,168.394 C23.3217,168.626 23.0887,168.826 22.9647,169.025 C22.8207,169.258 22.7047,169.578 22.5717,169.948 C22.4477,170.29 22.3197,170.638 22.1577,170.982 C22.0487,171.214 21.9307,171.443 21.8127,171.673 C21.5977,172.089 21.3957,172.483 21.2537,172.894 C21.0727,173.425 20.9357,174.018 20.7907,174.645 L20.7197,174.954 C20.6187,175.384 20.4597,175.772 20.3197,176.114 C20.1827,176.446 20.0547,176.759 20.0187,177.02 C19.9157,177.771 19.2727,178.316 18.5347,178.316" id="Fill-232" fill="#000000"/><path d="M25.7535,0.9069 L14.3545,0.9069 C9.2005,0.9069 4.8145,4.6009 3.8985,9.6419 C3.8885,9.7049 3.8795,9.7649 3.8695,9.8289 L3.8645,9.8619 L3.8645,9.8629 C3.8275,10.1079 3.7895,10.3579 3.7515,10.6069 C2.4255,19.3479 0.7875,30.0589 0.7875,30.0589 L36.2205,30.0589 L36.2925,22.2939 L36.3905,11.6419 C36.4445,5.7289 31.6665,0.9069 25.7535,0.9069" id="Fill-234" fill="#fc9b50"/><path d="M36.2203,30.0592 C22.3453,29.0832 18.5543,26.1082 18.6883,23.6312 C18.8073,21.4132 20.8923,21.7222 21.8033,21.7432 C25.8173,21.8322 36.2923,22.2932 36.2923,22.2932" id="Fill-236" fill="#000000"/></g></g></g></g></g><g id="Head" transform="translate(204.000000, 145.000000) scale(1 1)"><defs><polygon id="headlong-slick-1-path-1" points="0.371818811 0.914589475 82.838 0.914589475 82.838 95.9937941 0.371818811 95.9937941"/></defs><g id="Head/Long Slick 1" stroke="none" stroke-width="1" fill="none" fill-rule="evenodd"><g id="Group-183" transform="translate(92.000000, 45.000000)"><g id="Group-125" transform="translate(0.000000, 0.738000)"><path d="M66.0643,74.9752 C64.4293,70.9292 53.9113,71.9212 50.6773,71.8992 C49.3003,65.9322 47.7933,60.4952 46.4333,57.9502 C43.7283,52.8922 35.4813,47.5782 22.2933,49.6192 C13.5353,50.9732 4.2103,59.1432 10.2673,73.3632 C10.2673,73.3632 12.0003,76.8112 11.1703,82.4962 C11.0783,83.1212 10.9483,83.9962 10.7933,85.0382 L10.7923,85.0442 C10.5283,86.8052 10.1883,89.0612 9.8143,91.5262 C9.8053,91.5882 9.7953,91.6492 9.7863,91.7112 L9.7813,91.7462 L9.7803,91.7462 C9.7433,91.9922 9.7063,92.2422 9.6683,92.4912 C9.4383,95.0802 10.1453,103.5562 29.2223,103.6522 L42.2083,104.1772 L42.4063,104.1862 C42.4063,104.1862 46.7573,104.1372 49.3913,104.1372 C54.8653,104.1372 55.8053,98.9182 55.1913,95.0562 C54.9743,93.6932 54.2633,89.4972 53.2773,84.3502 C64.5953,82.2912 67.5013,78.5332 66.0643,74.9752" id="Fill-120" fill="#fc9b50"/><g id="Group-124"><mask id="headlong-slick-1-mask-2" fill="#ffffff"><use xlink:href="#headlong-slick-1-path-1" fill="#ffffff"/></mask><g id="Clip-123"/><path d="M23.0302,68.6823 C22.2562,70.5243 20.5242,71.7773 18.5332,71.9433 C16.7552,72.0923 14.6912,72.9533 13.8772,75.9173 C12.4582,81.0883 15.9592,84.8743 20.6142,84.9853 L19.9742,95.7593 C19.9742,95.7593 10.8842,97.7543 8.1132,90.1063 C5.3422,82.4573 5.4842,71.5943 1.7522,63.6143 C-1.9798,55.6323 1.7522,41.3333 14.2102,38.1193 C27.5622,34.6733 30.5042,21.4923 30.5042,21.4923 C30.5042,21.4923 36.2402,-7.2477 65.7542,3.2023 C88.9212,11.4053 88.0342,38.8953 66.0832,43.8623 C51.6702,47.1233 59.3942,62.0313 40.9242,64.0573 L28.1082,64.4093 C26.0872,64.4643 24.2842,65.6983 23.5002,67.5633 L23.0302,68.6823 Z" id="Fill-122" fill="#633052" mask="url(#headlong-slick-1-mask-2)"/></g></g></g></g></g><g id="Expression" transform="translate(315.000000, 246.000000) scale(1 1)"><g id="Expression/Surprisedd" stroke="none" stroke-width="1" fill="none" fill-rule="evenodd"><g id="Group-77" transform="translate(20.400000, 11.300000)"><g id="Group-29" transform="translate(0.000000, 0.116900)"><path d="M2.725,4.1232 C2.956,6.3522 6.315,6.0812 6.343,3.9372 C6.374,1.5152 2.451,1.4882 2.725,4.1232" id="Fill-23" fill="#000000"/><path d="M4.4872,0.133 C3.3802,0.133 2.3422,0.579 1.6402,1.359 C0.9392,2.137 0.6172,3.193 0.7362,4.33 C0.9402,6.299 2.4782,7.675 4.4742,7.675 C6.6172,7.675 8.3162,6.044 8.3422,3.963 C8.3562,2.931 7.9822,1.976 7.2892,1.274 C6.5732,0.549 5.5522,0.133 4.4872,0.133 M4.4872,2.133 C5.4162,2.133 6.3582,2.745 6.3432,3.938 C6.3282,5.066 5.3922,5.675 4.4742,5.675 C3.6472,5.675 2.8352,5.179 2.7252,4.123 C2.5852,2.785 3.5292,2.133 4.4872,2.133" id="Fill-25" fill="#ffffff"/><path d="M15.8003,24.8291785 C15.8003,28.1427865 14.4572387,30.8288 12.8003,30.8288 C11.1433613,30.8288 9.8003,28.1427865 9.8003,24.8291785 C9.8003,21.5148135 11.1433613,18.8288 12.8003,18.8288 C14.4572387,18.8288 15.8003,21.5148135 15.8003,24.8291785" id="Fill-27" fill="#000000" transform="translate(12.800300, 24.828800) scale(-1, 1) translate(-12.800300, -24.828800)"/></g></g></g></g><g id="Facial Hair" transform="translate(311.300000, 250.950000) scale(1 1)"><g id="Facial Hair/Long Beard" stroke="none" stroke-width="1" fill="none" fill-rule="evenodd"><g id="Group-10" transform="translate(5.000000, 2.609100)"><path d="M29.5077,17.642 C28.0297,17.746 26.4527,18.182 24.4227,19.513 C21.4647,21.451 19,19.513 16.1730762,17.513 C10.6738664,13.6224036 11.526534,3.70703468e-13 4.026834,1 C-1.17470161,1.69356582 0.57362263,9.23269694 1.42102116,18.1499811 C2.43151192,28.783506 3.42681544,41.3767179 7.26866369,46.6588483 C14.3322896,56.3705782 32.0747,54.106 33.9987,53.984 C47.0357,53.155 38.2567,29.014 35.5627,21.286 C34.5707,18.441 32.0557,17.463 29.5077,17.642 Z" id="Fill-6" fill="#633052"/><path d="M26.1775,28.8124 C22.5835,29.5534 20.8215,28.7854 20.7735,28.7774 C19.9545,28.6494 19.3945,27.8824 19.5225,27.0634 C19.6495,26.2524 20.4055,25.6964 21.2145,25.8104 C22.0855,25.9074 26.6115,26.5174 29.5435,24.2884 C30.2015,23.7844 31.1435,23.9144 31.6455,24.5744 C32.1475,25.2334 32.0195,26.1734 31.3595,26.6754 C29.9135,27.7754 28.0325,28.4294 26.1775,28.8124" id="Fill-8" fill="#000000"/></g></g></g><g id="Accesories" transform="translate(311.300000, 250.950000) scale(1 1)"><g id="Accesories/None" stroke="none" stroke-width="1" fill="none" fill-rule="evenodd" fill-opacity="0"/></g></g></g></g></svg>